<?xml version="1.0" standalone="no"?>
<!DOCTYPE svg PUBLIC "-//W3C//DTD SVG 1.1//EN" "http://www.w3.org/Graphics/SVG/1.1/DTD/svg11.dtd" >
<svg xmlns="http://www.w3.org/2000/svg">
<metadata>
Created by FontForge 20120731 at Mon Sep 15 07:58:42 2014
 By Ads
</metadata>
<defs>
<font id="iconfont" horiz-adv-x="1024" >
  <font-face 
    font-family="iconfont"
    font-weight="500"
    font-stretch="normal"
    units-per-em="1024"
    panose-1="2 0 6 3 0 0 0 0 0 0"
    ascent="812"
    descent="-212"
    x-height="792"
    bbox="13 -148 1011 792"
    underline-thickness="50"
    underline-position="-100"
    unicode-range="U+0078-E68E"
  />
<missing-glyph horiz-adv-x="374" 
d="M34 0v682h272v-682h-272zM68 34h204v614h-204v-614z" />
    <glyph glyph-name=".notdef" horiz-adv-x="374" 
d="M34 0v682h272v-682h-272zM68 34h204v614h-204v-614z" />
    <glyph glyph-name=".null" horiz-adv-x="0" 
 />
    <glyph glyph-name="nonmarkingreturn" horiz-adv-x="341" 
 />
    <glyph glyph-name="x" unicode="x" horiz-adv-x="1001" 
d="M281 543q-27 -1 -53 -1h-83q-18 0 -36.5 -6t-32.5 -18.5t-23 -32t-9 -45.5v-76h912v41q0 16 -0.5 30t-0.5 18q0 13 -5 29t-17 29.5t-31.5 22.5t-49.5 9h-133v-97h-438v97zM955 310v-52q0 -23 0.5 -52t0.5 -58t-10.5 -47.5t-26 -30t-33 -16t-31.5 -4.5q-14 -1 -29.5 -0.5
t-29.5 0.5h-32l-45 128h-439l-44 -128h-29h-34q-20 0 -45 1q-25 0 -41 9.5t-25.5 23t-13.5 29.5t-4 30v167h911zM163 247q-12 0 -21 -8.5t-9 -21.5t9 -21.5t21 -8.5q13 0 22 8.5t9 21.5t-9 21.5t-22 8.5zM316 123q-8 -26 -14 -48q-5 -19 -10.5 -37t-7.5 -25t-3 -15t1 -14.5
t9.5 -10.5t21.5 -4h37h67h81h80h64h36q23 0 34 12t2 38q-5 13 -9.5 30.5t-9.5 34.5q-5 19 -11 39h-368zM336 498v228q0 11 2.5 23t10 21.5t20.5 15.5t34 6h188q31 0 51.5 -14.5t20.5 -52.5v-227h-327z" />
    <glyph glyph-name="uniE600" unicode="&#xe600;" 
d="M574 -46h-220q-26 0 -48.5 7.5t-38.5 20.5t-28 29t-19 35t-10.5 36.5t-3.5 34.5v161h-127l442 368l424 -370h-124v-195q0 -20 -9 -39.5t-22.5 -34t-21.5 -21.5t-14 -12q-5 -4 -12 -4.5t-13 2t-11 8.5q-6 9 -4.5 19.5t10.5 16.5q8 6 17 15t18.5 23.5t9.5 26.5v246h39
l-288 251l-299 -249h36v-212q0 -47 27 -80q27 -31 70 -31h220q14 0 28.5 10.5t14.5 32.5v117q0 12 -7.5 23t-24.5 20t-41 9h-90q-3 -1 -9 -4.5t-12 -15.5t-6 -29q0 -60 4 -92q1 -11 -6 -19t-17.5 -9t-18.5 5.5t-9 17.5q-5 45 -5 97q0 45 25.5 72.5t53.5 27.5h90
q55 0 90 -31.5t35 -71.5v-117q0 -11 -2.5 -21t-6.5 -18.5t-9.5 -16t-12 -13.5t-14.5 -11t-16 -8t-16.5 -5t-17.5 -2z" />
    <glyph glyph-name="uniE601" unicode="&#xe601;" 
d="M945 530h-124q-4 43 -27.5 79.5t-62 57.5t-82.5 21h-398q-28 0 -54 -9t-47.5 -25t-37.5 -37t-24.5 -47.5t-8.5 -54.5v-430q0 -35 13.5 -67t37 -55t55 -37t66.5 -14h398q71 0 121.5 50.5t50.5 122.5v166h124v51l-88 90l88 78v60zM771 530h-46v81q40 -31 46 -81zM251 638
h398q13 0 27 -3v-480h-440q-55 0 -108 -55v415q0 25 10 48t26.5 39.5t39 26t47.5 9.5zM772 85q0 -34 -16.5 -62t-44.5 -44.5t-62 -16.5h-398q-37 0 -67 20t-45 53q10 15 22 28.5t33.5 28t41.5 14.5h489v145h47v-166zM786 395l92 -95h-57h-49h-47v180h158z" />
    <glyph glyph-name="uniE602" unicode="&#xe602;" 
d="M655 441l22 68h71q-9 -34 -21.5 -82t-28.5 -108q-12 -38 -20.5 -67.5t-13.5 -50t-7.5 -32t-1.5 -15.5q0 -25 22 -29q130 34 151 236q-16 257 -299 279q-304 -26 -329 -351q25 -308 337 -333q156 4 262 122h72q-110 -172 -338 -181q-380 25 -409 401q34 371 405 405
q342 -30 371 -333q-21 -262 -257 -313q-63 0 -72 68v-4q-63 -64 -131 -64q-143 13 -156 173q25 275 249 296q42 0 72.5 -21t49.5 -64zM622 349q-9 92 -89 101q-139 -17 -160 -211q1 -20 5 -36.5t11 -29t17.5 -21t24 -13.5t30.5 -6q135 21 161 216z" />
    <glyph glyph-name="uniE603" unicode="&#xe603;" 
d="M972 386q-5 44 -38.5 68.5t-76.5 26.5q-46 1 -79 -22v93q0 34 -12.5 60t-32 40.5t-40.5 22t-41 7.5h-254q-66 0 -105.5 -40.5t-39.5 -107.5v-80q-33 28 -86 27q-27 -1 -51 -11t-42 -32t-22 -52q-7 -56 25 -97.5t75 -62.5v-308h720v308q43 21 75 62.5t25 97.5zM739 -42
h-447v186h447v-186zM398 642h254q4 0 10.5 -0.5t21 -5.5t26 -13.5t20.5 -27t9 -43.5v-349h-447v331q0 33 12.5 57.5t36.5 37.5t57 13zM179 257l-11 5q-7 4 -23 15t-28 24.5t-20.5 35t-5.5 44.5q4 30 26.5 45t50.5 16q17 0 32.5 -4t27 -13.5t13.5 -22.5l12 3v-447h-61v294z
M845 257l-13 -5v-294h-54v445l5 -1q4 20 25 30.5t48 9.5q28 -1 50.5 -16t26.5 -45q2 -19 -2.5 -37.5t-15 -31.5t-21 -23.5t-23 -17.5t-18 -9.5t-8.5 -4.5z" />
    <glyph glyph-name="uniE604" unicode="&#xe604;" 
d="M512 538q-18 0 -34 -7t-26 -18t-17.5 -21.5t-10.5 -18.5l-3 -7h180q0 17 -23.5 44.5t-65.5 27.5zM790 521h-68q-4 63 -65 107.5t-145 44.5q-55 0 -102.5 -20t-76 -55.5t-31.5 -76.5h-68q-55 0 -94 -39t-39 -94v-329q0 -55 39 -93.5t94 -38.5h556q36 0 66.5 17.5t48.5 48
t18 66.5v329q0 55 -39 94t-94 39zM254 -19h-20q-33 0 -55.5 23t-22.5 55v329q0 32 22.5 55t55.5 23h20v-485zM708 -19h-416v485h19h62q-8 11 -12.5 22.5t-4.5 24.5q0 43 46.5 74.5t109.5 31.5t109.5 -31.5t46.5 -74.5q0 -13 -4.5 -24.5t-12.5 -22.5h57v-485zM868 59
q0 -32 -22.5 -55t-55.5 -23h-43v485h43q21 0 39 -10.5t28.5 -28.5t10.5 -39v-329z" />
    <glyph glyph-name="uniE605" unicode="&#xe605;" 
d="M302 291q0 18 6 43.5t16 51.5h-77q-9 0 -18 -16.5t-15 -40t-10 -46.5t-4 -37v-119q0 -35 15 -88t32 -53h77q-22 55 -22 97v208zM392 420q-13 -18 -23.5 -43t-16 -47.5t-5.5 -38.5v-208q0 -26 12 -63.5t35 -68.5t47 -31h251q26 0 48 12t34.5 32.5t12.5 44.5l1 8h-194
q-12 0 -20.5 8.5t-8.5 20.5q0 8 4 15t10.5 11t14.5 4h200l8 81h-208q-12 0 -20.5 9t-8.5 21q0 8 4 15t10.5 11t14.5 4h215l8 81h-223q-12 0 -20.5 8.5t-8.5 21t8.5 21t20.5 8.5h229l1 8q0 36 -27.5 62.5t-67.5 26.5h-166l7 44l14 87q5 33 -14.5 60.5t-52.5 33.5
q-22 3 -42.5 -4.5t-34 -24.5t-17.5 -39l-20 -122z" />
    <glyph glyph-name="uniE606" unicode="&#xe606;" 
d="M512 704q-41 0 -81 -8.5t-76 -23.5t-68.5 -37.5t-59.5 -49.5t-49.5 -59.5t-37.5 -68.5t-23.5 -76t-8.5 -81q0 -109 54.5 -202t147.5 -147.5t202 -54.5t202 54.5t147.5 147.5t54.5 202t-54.5 202t-147.5 147.5t-202 54.5zM861 300q0 -10 -1 -21l-2 -22q-25 -4 -47 -4
q-93 0 -173 47q15 24 27.5 49.5t22.5 53t17 56.5t11 59.5t4 60.5q65 -48 103 -121.5t38 -157.5zM664 613q1 -7 1 -15v-14q0 -139 -73 -253q-40 32 -69 74t-45 92.5t-16 104.5q0 11 1 21.5t2 21.5q26 4 47 4q80 0 152 -36zM409 633q-2 -16 -2 -31q0 -94 41 -176.5t112 -138.5
q-18 -22 -38 -40q-57 68 -138 107.5t-173 39.5q-6 0 -12 -0.5t-11.5 -0.5t-11.5 -1q23 86 85.5 150.5t147.5 90.5zM163 300v6v6q0 3 0.5 6t0.5 6t0.5 6t0.5 6q24 3 46 3q53 0 103 -15.5t91.5 -43.5t73.5 -67q-93 -64 -202 -64q-21 0 -42 2.5t-42 7.5q-30 68 -30 141zM229 97
q25 -3 48 -3q126 0 234 74q23 -40 36 -85t13 -93q0 -16 -2 -36q-12 -1 -23.5 -2t-22.5 -1q-179 0 -283 146zM614 -34q1 14 1 24q0 115 -61 212q28 25 51 53q95 -56 206 -56q17 0 35 1q-12 -41 -34.5 -78.5t-52 -67.5t-67 -52.5t-78.5 -35.5z" />
    <glyph glyph-name="uniE607" unicode="&#xe607;" 
d="M387 -46v207h-152q-23 0 -42.5 11.5t-31 31t-11.5 42.5v315q0 18 6.5 33.5t18 27t27 18t33.5 6.5h554q35 0 60 -25t25 -60v-315q0 -9 -1.5 -17.5t-5 -16t-8 -14.5t-10 -12.5t-12.5 -10t-14.5 -8t-16 -5t-17.5 -1.5h-195zM235 590q-12 0 -20.5 -8.5t-8.5 -20.5v-315
q0 -8 4 -14.5t10.5 -10.5t14.5 -4h208v-127l128 127h218q8 0 14.5 4t10.5 10.5t4 14.5v315q0 12 -8.5 20.5t-20.5 8.5h-554z" />
    <glyph glyph-name="uniE608" unicode="&#xe608;" 
d="M758 320h-219v241q0 51 54 92t120 41q31 0 59 -6.5t54 -19.5t45 -32.5t30 -48t11 -61.5q0 -57 -23.5 -105t-59 -74.5t-71.5 -26.5zM598 379h160q18 0 39.5 17t38.5 52t17 78q0 29 -13.5 51t-31 32.5t-40.5 17t-34.5 7t-20.5 0.5q-43 0 -79 -25t-36 -48v-182zM485 320
h-219q-57 0 -105.5 60.5t-48.5 145.5q0 41 17 74.5t45.5 53t63.5 30t73 10.5q66 0 120 -41t54 -92v-241zM311 634q-9 0 -20.5 -0.5t-34.5 -7t-40.5 -17t-31 -32.5t-13.5 -51q0 -63 32.5 -105t62.5 -42h160v182q0 6 -3 13t-9 14t-14 13.5t-18 12.5t-21.5 10.5t-24 7
t-25.5 2.5zM713 -94q-66 0 -120 41t-54 92v241h219q57 0 105.5 -60.5t48.5 -145.5q0 -55 -29.5 -94.5t-73.5 -56.5t-96 -17zM598 221v-182q0 -23 36 -48t79 -25q9 0 20.5 0.5t34.5 7t40.5 17t31 32.5t13.5 51q0 43 -17 78t-38.5 52t-39.5 17h-160zM311 -94q-52 0 -96 17
t-73.5 56.5t-29.5 94.5q0 85 48.5 145.5t105.5 60.5h219v-241q0 -55 -61 -97q-52 -36 -113 -36zM266 221q-30 0 -62.5 -42t-32.5 -105q0 -82 95 -103q24 -5 45 -5q43 0 79 25t36 48v182h-160z" />
    <glyph glyph-name="uniE609" unicode="&#xe609;" 
d="M817 120h-435l-165 445h-97v71h147l165 -445h332q13 42 24.5 78.5t25.5 81t17 54.5q2 3 2 7t-0.5 7.5t-2.5 6.5q-3 5 -12.5 7.5t-22.5 2.5h-339l58 -159l-67 -24l-91 254h439q65 0 93 -40q14 -20 15.5 -45t-5.5 -41q-10 -27 -74 -235zM421 17zM368 17q0 22 15.5 37
t37.5 15t37.5 -15t15.5 -37t-15.5 -37.5t-37.5 -15.5t-37.5 15.5t-15.5 37.5zM733 17zM681 17q0 22 15.5 37.5t37 15.5t37 -15.5t15.5 -37.5q0 -34 -31 -48q-11 -5 -22 -5q-21 0 -36.5 15.5t-15.5 37.5z" />
    <glyph glyph-name="uniE60A" unicode="&#xe60a;" 
d="M386 -103l55 180q4 17 -11 26l-58 35q-6 4 -11.5 11.5t-7.5 14.5q0 2 -0.5 7t1 22.5t7.5 38t21.5 55.5t39.5 73q37 61 73 98.5t53 45.5l17 7q7 2 16.5 0.5t15.5 -5.5l49 -30q4 -2 9 -3t10 0.5t9 4.5l143 126q4 3 5 7t-0.5 7.5t-5.5 5.5l-134 82q-15 9 -32 7l-37 -10
q-130 -48 -250 -216l-43 -65q-132 -216 -117 -380q3 -30 9 -46q3 -7 9 -14.5t12 -10.5l134 -82q6 -4 11.5 -1.5t7.5 9.5z" />
    <glyph glyph-name="uniE60B" unicode="&#xe60b;" 
d="M880 73l-165 97q-3 2 -7 2.5t-7.5 0t-7 -2.5t-6.5 -4l-48 -49q-3 -2 -6.5 -4.5t-7.5 -4t-8.5 -2.5t-7.5 -1t-8 0.5t-22 6.5t-36 17t-49.5 34.5t-62.5 56t-56 62.5t-34.5 50t-16.5 35.5t-7 22.5l-1 7q0 17 13 30l41 41q13 13 5 29l-91 171q-3 6 -8.5 7t-10.5 -4l-113 -112
q-6 -5 -10 -14t-5 -16q0 -2 -0.5 -6t0 -17.5t3 -28t8.5 -37.5t15.5 -46.5t25.5 -54.5t37 -62.5t52 -68.5t68 -74q178 -179 343 -206q33 -5 52 -3q17 2 30 15l112 112q6 6 5 12t-8 9zM477 382q38 -10 66 -38t38 -66h46q-4 28 -16.5 53.5t-32.5 46.5q-42 42 -101 49v-45z
M698 278h54q-8 110 -86.5 188.5t-188.5 86.5v-55q88 -7 150.5 -69.5t70.5 -150.5z" />
    <glyph glyph-name="uniE60C" unicode="&#xe60c;" 
d="M512 666q-99 0 -183.5 -49t-133.5 -133.5t-49 -183.5q0 -74 29 -142t78 -117t117 -78t142 -29q99 0 183.5 49t133.5 133.5t49 183.5q0 151 -107.5 258.5t-258.5 107.5zM736 80v0l-97 117q40 43 47 101q9 74 -37 133t-120 68t-133 -37.5t-68 -120.5t37 -132.5t120 -67.5
q28 -4 54.5 1t50.5 18l98 -119q1 0 1 -1q-80 -54 -177 -54q-130 0 -222 92t-92 222t92 222t222 92q64 0 122 -24.5t100.5 -67t67 -100.5t24.5 -122q0 -128 -90 -220zM490 183q-56 7 -91 52t-28.5 101.5t51.5 91.5t101.5 28t91.5 -52t28 -101q-2 -16 -7.5 -31t-13.5 -27.5
t-19 -23t-24 -18.5t-27.5 -13.5t-29.5 -6.5t-32 0z" />
    <glyph glyph-name="uniE60D" unicode="&#xe60d;" 
d="M270 376h73v-76h-73v76zM414 376h74v-76h-74v76zM414 222h74v-76h-74v76zM270 222h73v-76h-73v76zM808 679h-210l-46 -42v-127h-16v40h-35v19h-136v-21h-40v33h-121v-80h-38v-580h400h292v702zM556 -26h-347v488h51v71h25v-71h83v49h132v-49h56v-488zM799 -26h-185v651
h185v-651zM671 375h74v-76h-74v76zM671 219h74v-76h-74v76zM671 546h74v-76h-74v76z" />
    <glyph glyph-name="uniE60E" unicode="&#xe60e;" 
d="M915 280q0 28 -13 52t-29.5 38t-39.5 25.5t-38 16t-29 7.5v13v5q1 70 -36 107q-24 25 -65 37.5t-97 12.5h-5v-49h5q92 0 127 -36q12 -12 17 -29q-6 -19 -13.5 -34.5t-15 -26.5t-14.5 -19t-13.5 -11.5t-12.5 -3.5h-48q-258 -4 -333 0q-20 2 -36.5 11.5t-26 21.5t-17 27
t-9.5 23t-4 15q12 28 32 45t41 17h83v49h-83q-53 0 -93 -48.5t-40 -113.5v-354q0 -49 52 -93.5t121 -44.5h357q42 0 81.5 47t45.5 101q67 17 108 69t41 123zM639 -10h-357q-48 0 -85.5 30t-37.5 58v311q40 -49 100 -53q44 -3 136 -3q70 0 200 2h8h7h6q4 0 6.5 0.5t5.5 0.5h5
h4h3h3q20 0 38.5 11t35.5 32v-278q0 -46 -41 -89q-22 -21 -37 -22zM766 140v228q15 -4 29.5 -10t31.5 -16t27.5 -26.5t10.5 -35.5q0 -85 -68 -126q-15 -9 -31 -14zM371 566q15 -11 12 -49q-1 -15 -5 -24.5t-8 -11.5l14 -30q4 2 7.5 4.5t6.5 6t5.5 8t4.5 9.5t3.5 10.5t3 11.5
t1.5 13q5 57 -27 79q-4 2 -4 7q-2 8 3.5 20t11.5 20l-13 10l-13 10q-27 -36 -22 -66q3 -18 19 -28zM479 566q16 -11 13 -49q-3 -31 -13 -36l14 -30q28 13 32 63q2 24 -4.5 46t-22.5 33q-2 1 -3 2.5t-1 4.5q-3 16 15 40l-13 10l-14 10q-26 -36 -21 -66q3 -18 18 -28z" />
    <glyph glyph-name="uniE60F" unicode="&#xe60f;" 
d="M724 510q59 16 110 39q-51 67 -124 108.5t-158 49.5q1 -1 6 -3q18 -10 32.5 -20t41.5 -33t51 -59.5t41 -81.5zM551 707q-5 1 -23 1v-227q84 3 162 20q-16 42 -38 80.5t-44 64.5t-35 39.5t-22 21.5zM302 335v-19h194v134q-89 1 -173 19q-20 -67 -21 -134zM839 58
q9 12 18 25q-4 -6 -8.5 -12.5t-9.5 -12.5v0zM835 549q1 -2 2 -3l2 -4l2 -2q1 -2 2.5 -3.5l2.5 -2.5l2 -4l2 -2l2 -4q-7 10 -17 25zM735 480q11 -35 17.5 -76t7.5 -88h158v-5q0 -3 0.5 -6t0.5 -5q0 122 -67 224q-55 -26 -117 -44zM918 284h-158q-1 -85 -21 -156
q63 -18 118 -45q62 100 62 217q0 -2 -0.5 -4t-0.5 -4v-4v-4zM496 708q-18 0 -23 -1q-15 -13 -33.5 -32.5t-52.5 -70t-54 -105.5q79 -17 163 -18v227zM551 -107q106 83 145 214q-81 19 -168 21v-236q18 0 23 1zM182 62q-9 12 -17 26q56 26 119 43q-6 22 -10.5 46t-7 51.5
t-2.5 55.5h-158v5q0 3 -0.5 6t-0.5 5q0 -131 77 -238zM294 102q-59 -16 -112 -40q50 -71 125.5 -115.5t163.5 -53.5q-10 4 -22 11t-34.5 24.5t-42.5 39t-42 57t-36 77.5zM264 316q3 89 24 161q-63 17 -119 42q2 3 3.5 5.5t3.5 5t3.5 5.5t3.5 5.5t4 4.5q26 -11 54 -21t57 -17
q8 21 18 40t19.5 34.5t20.5 30t21 25t21.5 20.5t19.5 16.5t18 13t15.5 9.5t12.5 6.5t8 4.5q-101 -10 -185.5 -66t-133 -146.5t-48.5 -194.5q0 2 0.5 5t0.5 6v5h158zM729 98q-15 -40 -36.5 -75t-41.5 -56.5t-42 -38.5t-34 -24t-22 -11q87 9 161.5 52.5t124.5 112.5
q-51 24 -110 40zM722 335q-1 69 -22 137q-83 -19 -172 -22v-134h194v19zM473 -107q6 -1 18 -1h5v236q-87 -1 -169 -18q38 -133 146 -217zM496 159v125h-193q2 -80 17 -144q85 18 176 19zM721 284h-193v-125q45 -1 89.5 -6.5t85.5 -15.5q16 65 18 147z" />
    <glyph glyph-name="uniE610" unicode="&#xe610;" 
d="M389 -88h-278v480h278v-480zM138 -61h224v425h-224v-425zM913 -76h-401l-17 37h-120v27h137l17 -37h357v439h-265l27 24q23 20 49 49.5t31 49.5q9 37 8 116q0 14 -12.5 22.5t-28.5 9.5t-29 -5.5t-15 -21.5q-14 -109 -96 -181q-50 -44 -99 -68v-77h-81v27h53v67l9 4
q50 24 100 68q74 64 87 164q2 18 13.5 30t26.5 16.5t32 3.5t32 -7.5t25 -19.5t10 -29q1 -43 -1.5 -74.5t-7.5 -51.5q-8 -34 -63 -89h222v-493z" />
    <glyph glyph-name="uniE611" unicode="&#xe611;" 
d="M525 584l-464 -208l86 -40v-138h-16v-20h16v-96h-16v-19h63v19h-15v96h15v20h-15v124l74 -34q185 155 400 75q81 -30 132 -75l178 86zM311 255v-182q7 -5 20.5 -13t58 -23t91.5 -20t118 7.5t142 48.5v189q-3 2 -8 5t-21 11.5t-33.5 16t-44 15t-53 11.5t-60.5 3.5
t-66.5 -7t-70.5 -22t-73 -40.5zM701 90.5q0 -19.5 -53 -34t-128 -14.5t-127.5 14.5t-52.5 34t52.5 34t127.5 14.5t128 -14.5t53 -34z" />
    <glyph glyph-name="uniE612" unicode="&#xe612;" 
d="M512 -31l-6 1q-23 5 -60.5 21.5t-86 46.5t-94 66.5t-84.5 86.5t-56 100q-23 69 -15 135t46 118q19 27 44.5 47t53.5 30t57 10q96 0 201 -99q24 23 50.5 42.5t69.5 38t81 18.5q43 0 84.5 -23t70.5 -64q38 -52 46 -118t-15 -135q-17 -50 -56 -100t-84.5 -86.5t-94 -66.5
t-86 -46.5t-60.5 -21.5zM311 569q-28 0 -56 -16.5t-49 -44.5q-14 -20 -22.5 -43t-11.5 -48t0 -52t12 -54q18 -52 63 -102.5t97.5 -86t96.5 -59t71 -30.5q20 6 53 21t75 42t81 58t72 73t47 84q12 36 13.5 71t-8 67t-27.5 59q-21 28 -49 44.5t-56 16.5q-17 0 -36.5 -6t-36 -14
t-33.5 -19.5t-28.5 -21.5t-22.5 -20t-15 -14.5t-6 -6.5l-23 -26l-23 26q-4 4 -11 11.5t-27.5 24.5t-40.5 30.5t-47.5 24.5t-51.5 11z" />
    <glyph glyph-name="uniE613" unicode="&#xe613;" 
d="M476 160l-155 129l34 40l116 -98l194 209l38 -36zM797 469q47 -79 47 -169t-44.5 -166.5t-121 -121t-166.5 -44.5q-67 0 -128.5 26.5t-106 71t-71 106t-26.5 128.5q0 90 44.5 166.5t121 121t166.5 44.5q127 0 222 -86l43 31q-35 33 -76.5 56.5t-89.5 36.5t-99 13
q-104 0 -192.5 -51t-139.5 -139.5t-51 -192.5t51 -192.5t139.5 -139.5t192.5 -51t192.5 51t139.5 139.5t51 192.5q0 107 -56 199z" />
    <glyph glyph-name="uniE614" unicode="&#xe614;" 
d="M802 -115q-15 0 -34 3.5t-50 12.5t-68.5 31.5t-72.5 56.5q-10 -1 -21 -1.5t-22 -0.5h-21q-11 0 -21.5 1t-21.5 2q-101 11 -187 56t-142 116q-87 110 -72 238q7 67 43.5 125t93 99.5t131 66t155.5 24.5q31 0 62 -4q101 -11 187 -56t142 -115q87 -111 72 -239
q-8 -72 -49.5 -134.5t-109.5 -105.5q3 -23 18.5 -45t44.5 -44q27 -20 17 -50q-12 -36 -74 -37zM606 70l13 -14q34 -35 68 -55.5t65 -29.5q-39 55 -33 116l2 19l17 10q60 34 97 85t44 109q5 47 -9.5 93.5t-47.5 88.5q-46 58 -118.5 95.5t-158.5 46.5q-26 3 -53 3
q-136 0 -235 -70t-112 -176q-11 -96 57 -181q46 -59 118.5 -96.5t158.5 -46.5q54 -6 108 0zM710 295q8 0 15.5 2t13.5 5.5t11.5 9t9 11.5t5.5 13.5t2 14.5q0 16 -7.5 29t-20.5 20.5t-29 7.5q-23 0 -39.5 -16.5t-16.5 -40t16.5 -40t39.5 -16.5zM509 295q16 0 29 7.5
t20.5 20.5t7.5 28q0 24 -16.5 40.5t-40 16.5t-40 -16.5t-16.5 -40t16.5 -40t39.5 -16.5zM308 295q12 0 22.5 4.5t18 12t12 18t4.5 21.5q0 24 -16.5 40.5t-40.5 16.5q-11 0 -21.5 -4.5t-18.5 -12t-12 -18t-4 -22.5q0 -15 7.5 -28t20.5 -20.5t28 -7.5z" />
    <glyph glyph-name="uniE615" unicode="&#xe615;" 
d="M781 569l-538 -538h538v538z" />
    <glyph glyph-name="uniE616" unicode="&#xe616;" 
d="M931 -78h-642q-42 0 -76.5 14.5t-56 36.5t-36.5 49.5t-21 51.5t-6 44v377q0 48 17 84t40 54.5t54 29t51 13t40 2.5h508v-50h-508q-12 0 -23 -1t-24.5 -3.5t-25.5 -7.5t-24 -11.5t-21.5 -17t-17.5 -23t-12 -30.5t-4 -39v-377q0 -11 3.5 -26.5t13.5 -37t25.5 -39.5
t42.5 -30.5t61 -12.5h642v-50zM712 508h162v-51h-162v51zM750 333h162v-51h-162v51zM763 162h162v-51h-162v51zM454 552q13 -2 4 -18q-9 -13 -9 -24v-44h109q51 0 66 4v-51q-6 1 -15 2t-22 1.5t-29 0.5h-106v-84h172q20 0 35.5 1t26.5 4v-54q-17 5 -59 5h-175v-62l19 29
q17 -9 34 -19.5t35 -23t36 -26t37 -29.5l-40 -44q-11 12 -28.5 25.5t-41 29.5t-51.5 33v-101q0 -52 4 -69h-60q5 15 5 69v188h-147q-46 0 -68 -5v54q19 -5 73 -5h142v164q0 3 -0.5 6t-0.5 5v6v4v6v4q0 3 -0.5 5t-0.5 5v4q0 2 -1 4v2q19 0 33 -0.5t23 -1.5z" />
    <glyph glyph-name="uniE617" unicode="&#xe617;" 
d="M681 -13h-3q-19 1 -37 14l-3 2l-127 104l-123 -105q-18 -14 -38 -15h-3q-27 0 -42 23q-10 13 -10 31q0 11 4 23l49 162l-126 83q-10 7 -17 15q-3 4 -6 8.5t-5 11.5t-2 15q-1 6 0.5 12.5t4.5 12t7 9.5q4 5 9 9t11 7q8 3 15 4t14 1h157l45 164q2 6 4 11.5t6 10.5
q16 24 44 25h1q28 -1 44 -24q2 -3 3.5 -5.5t2.5 -4.5t2 -4.5t1.5 -4.5t0.5 -4l46 -164h156h6q3 0 7 -0.5t8 -1.5q18 -6 29 -19q6 -7 9 -16t3 -18q0 -19 -13 -35q-2 -3 -5 -5l-4 -4q-3 -2 -4.5 -3.5t-3.5 -2.5l-125 -82l55 -161q1 -3 2 -5.5t1.5 -5.5t1 -6.5t0.5 -7.5
q-1 -19 -11 -33q-14 -21 -41 -21zM670 42l1 -1q3 -2 4 -3h2q1 -1 3 -1l1 1q1 1 1 3v4q0 2 -1 5l-58 170q-2 4 -2 10t2 12.5t6 12.5t10 9l131 87q4 3 6 5l2 4v0l-1 1q-1 1 -4 2q-2 1 -7 1h-165q-6 0 -12 2.5t-11 6.5q-11 8 -14 20l-48 171q-1 5 -3 8q-2 2 -3 2q-2 0 -3 -2
q-2 -3 -3 -8l-48 -171q-3 -12 -15 -21q-4 -3 -10.5 -5.5t-11.5 -2.5h-165q-7 0 -10 -2l-2 -1v-1q0 -2 2 -4t6 -5l132 -87q4 -3 7.5 -7t6 -9t3.5 -10t1 -10t-2 -10l-51 -168q-2 -5 -2 -8l1 -4q1 0 2 -1q2 0 3 0.5t2 1.5t4 3l1 1l130 110q2 2 4.5 3.5t5.5 2.5t6.5 1.5t6.5 0.5
q13 0 23 -8z" />
    <glyph glyph-name="uniE618" unicode="&#xe618;" 
d="M516 708h-2h-2h-2h-2q-61 0 -112 -30t-81 -81t-30 -111q0 -54 57 -202.5t113 -270.5l57 -121q5 9 13 26.5t31.5 69t45 100.5t47.5 112.5t45 115t32 98.5t13 72q0 36 -11.5 69.5t-32 61t-48 48.5t-61.5 32t-70 11zM511 403q-42 0 -72 30t-30 72.5t30 72t72.5 29.5
t72 -29.5t29.5 -72.5q0 -27 -13.5 -50.5t-37 -37.5t-51.5 -14z" />
    <glyph glyph-name="uniE619" unicode="&#xe619;" 
d="M316 13l308 305q8 -1 17 -2t18 -1q73 0 125.5 52t52.5 125.5t-52.5 126t-125.5 52.5q-49 0 -90 -24t-64.5 -65t-23.5 -89q0 -30 10 -59l-304 -290l47 -47l-46 -44l14 -15q57 -66 77 -86q23 -23 60 -23q41 0 74 29q37 33 221 225l44 -40l-83 -85l30 -30l114 118l-108 95
l-14 -14q-7 -8 -11.5 -12.5t-28 -29t-41 -42.5t-44 -45.5t-45.5 -46.5l-37 -37q-17 -17 -25 -24q-15 -13 -31.5 -16.5t-27.5 -0.5t-18 9q-8 9 -25.5 28t-35.5 40l16 17zM659 629q56 0 95.5 -40t39.5 -96t-39.5 -96t-96 -40t-96 40t-39.5 96q0 27 10.5 52.5t29 43.5t43.5 29
t53 11zM579 334l-51 -51l-69 62l51 49q27 -39 69 -60zM428 316l70 -63l-182 -180l-69 70z" />
    <glyph glyph-name="uniE61A" unicode="&#xe61a;" 
d="M546 748q-147 0 -243 -65q-106 -74 -110 -213q-2 -78 29 -170t76 -168.5t91 -141.5t77.5 -101.5t32.5 -36.5q11 10 29 28.5t66.5 74.5t88.5 110.5t80 128t56 135.5q8 33 11 66t0 63t-10.5 59.5t-19 55t-27.5 49t-34.5 43t-41 35t-46.5 26.5t-51 16.5t-54 5.5zM509 177
q-93 0 -158.5 65.5t-65.5 158t65.5 158t158 65.5t158 -65.5t65.5 -158.5q0 -30 -8 -59t-22.5 -53.5t-35 -45t-45 -35t-53.5 -22.5t-59 -8z" />
    <glyph glyph-name="uniE61B" unicode="&#xe61b;" 
d="M106 -57v99q0 3 0.5 6t3 10t6.5 14.5t12 17.5t19 19.5t28.5 20.5t38.5 20q6 3 13.5 6.5t12.5 6.5t16 9q86 48 148 65q-22 33 -50 104q-11 30 -11 86v14q0 6 -1 25q-2 54 3 74q17 59 58 88t108 29t108 -29t58 -88q5 -20 3 -74q-1 -18 -1 -25v-15q1 -55 -11 -85
q-9 -23 -16.5 -40t-16 -34t-17.5 -30q29 -7 59.5 -20t47 -21.5t43.5 -23.5q8 -4 11.5 -6.5t10 -5.5t11 -5.5t8.5 -4.5q30 -13 51.5 -28.5t32 -27.5t17 -24.5t7.5 -18t1 -8.5v-100h-812zM511 617q-53 0 -83.5 -21t-43.5 -67q-4 -14 -2 -61q1 -19 1 -27v-14v-21q0 -9 0.5 -17
t2.5 -16.5t5 -17.5q35 -88 63 -117l24 -27l-35 -6q-33 -6 -67 -19t-52.5 -22.5t-48.5 -26.5q-6 -3 -9.5 -5t-9 -5t-9 -5t-8 -4t-8.5 -4q-23 -10 -40 -21.5t-25 -19.5t-13 -16.5t-6 -11t-1 -4.5v-58h732v59v0q-1 3 -2 5.5t-6.5 11t-13.5 16.5t-24.5 18.5t-38.5 20.5
q-13 6 -45 24q-97 54 -169 67l-36 6l25 27q12 13 24 33t20.5 39t18.5 46q9 22 8 70v15q0 8 1 27q2 47 -2 61q-12 46 -43 67t-84 21z" />
    <glyph glyph-name="uniE61C" unicode="&#xe61c;" 
d="M657 261q37 20 64 52t42.5 72.5t15.5 84.5q0 49 -19 93t-51 76.5t-76 51.5t-93 19q-98 0 -168 -70.5t-70 -169.5q0 -61 28 -113.5t77 -85.5q-93 -20 -170.5 -74t-129 -133.5t-68.5 -173.5h66q31 142 145 235.5t262 93.5t262 -93.5t145 -235.5h66q-24 131 -113 231
t-215 140zM367 469.5q0 72.5 51 124t122.5 51.5t122.5 -51.5t51 -124t-51 -123.5t-122.5 -51t-122.5 51t-51 123.5z" />
    <glyph glyph-name="uniE61D" unicode="&#xe61d;" 
d="M127 59l206 -62h344l212 62h-762zM291 -24h435v-29h-435v29zM749 573q1 -5 3 -12t1 -25t-10 -32q-4 -5 -16 -21.5t-17.5 -24.5t-10.5 -21.5t-5 -25.5q1 -15 11 -28.5t19 -19.5l9 -7q1 4 0 19.5t4.5 39t16.5 34.5q18 17 27 41.5t4 42.5q-4 10 -13 20t-16 15zM811 458
q1 -1 1.5 -2.5t1.5 -6.5t1 -10t-2 -11.5t-5 -12.5q-3 -3 -10.5 -13t-11 -15.5t-6.5 -14t-3 -15.5q1 -4 2.5 -8.5t3.5 -7.5t4.5 -6t5 -5.5t4.5 -4t3 -1.5l2 -1q-3 43 13 58q11 10 16.5 25.5t2.5 26.5q-1 3 -3 6t-4 5l-4 6q-2 2 -4 3.5t-4 2.5l-3 2h-1zM302 653q-13 -33 5 -59
q4 -6 14.5 -20t15 -21t9 -19t3.5 -22q-1 -13 -9 -25t-17 -17l-8 -5q4 60 -18 80q-16 15 -23.5 36t-2.5 37q2 10 10 18.5t15 12.5zM244 566q-9 -23 4 -42q2 -4 10 -14t11 -15t6.5 -13.5t2.5 -16.5q0 -9 -6.5 -17.5t-11.5 -12.5l-6 -4q-1 2 -0.5 12t-2.5 24.5t-10 21.5
q-12 11 -17.5 26t-1.5 27q1 4 4 8t6 7t5.5 5t4.5 3zM669 145q-16 0 -30.5 -6t-23.5 -13.5t-16.5 -17.5t-10 -14.5t-3.5 -7.5l14 -6h1q4 7 9.5 15.5t22.5 20.5t37 12q15 0 27.5 -5.5t19.5 -14.5t10.5 -15.5t5.5 -12.5h9l8 2q-2 6 -5.5 13.5t-12 20t-25 21t-37.5 8.5zM671 218
q-58 0 -103.5 -39t-59.5 -99h17q9 35 30 62.5t51.5 43t65 15.5t65 -15.5t51.5 -43t30 -62.5h17q-18 79 -86 117q-37 20 -78 21zM695 276q-12 65 -74 109t-145 44q-60 0 -111 -24.5t-81 -66t-30 -90.5v-1q-29 -10 -53.5 -27t-42 -38t-27 -47t-9.5 -53v-2h16v1v1
q0 68 60.5 116t145.5 48q52 0 98 -20q7 7 13 12q-12 6 -26 10.5t-28 7.5q12 11 26 16.5t31 5.5q67 0 106 -28q-24 -12 -43.5 -28.5t-33 -36t-21.5 -42.5t-8 -46q0 -7 1 -17h17q0 3 -0.5 5.5t-0.5 5.5v6q0 67 60 115t145 48q24 0 47 -4t43.5 -12t38.5 -19.5t32 -25.5
t24 -30.5t15.5 -34.5t5.5 -37q0 -9 -1 -17h16q1 10 1 17q0 35 -16 67t-43.5 56t-66 39t-81.5 17zM458 294q-24 0 -43 -9t-34 -25q-10 1 -19 2t-18 1h-3q20 36 54.5 58t75.5 22q21 0 40 -5.5t35.5 -16t30 -25t24.5 -31.5q-10 -3 -20 -7q-44 36 -123 36zM617 269
q-15 28 -37 48t-50 31.5t-59 11.5q-48 0 -88 -27t-61 -71q-5 -1 -10.5 -1.5t-10.5 -1t-10 -2t-10 -2.5l-10 -2q2 32 18.5 61.5t44 51t64.5 34t78 12.5q50 0 93.5 -17.5t72 -48.5t36.5 -69q-15 0 -30.5 -2t-30.5 -6zM337 133q-52 0 -81 -53h19q25 37 62 37q24 0 41 -14l6 16
q-20 14 -47 14zM345 201q-55 0 -98.5 -33.5t-60.5 -87.5h17q6 15 14 29t18.5 25.5t23 21t26 15.5t29 9.5t31.5 3.5q33 0 63 -15q4 7 8 15q-11 5 -22.5 9t-24 6t-24.5 2z" />
    <glyph glyph-name="uniE61E" unicode="&#xe61e;" 
d="M78 83h868l-434 434z" />
    <glyph glyph-name="uniE61F" unicode="&#xe61f;" 
d="M72 520h880l-440 -440z" />
    <glyph glyph-name="uniE620" unicode="&#xe620;" 
d="M689 557.5q0 -73.5 -52 -125.5t-125 -52t-125 52t-52 125q0 29 9 56t25.5 49t38 38.5t48.5 25t56 8.5q73 0 125 -51.5t52 -125zM540 -134h224q5 2 14.5 7.5t33 22.5t41.5 35t33 45t15 53q0 27 -19.5 64.5t-50.5 73.5t-65 67.5t-66 50.5t-51 19h-125h-24h-125
q-14 0 -34.5 -10t-44 -28t-48 -40.5t-47 -48.5t-40 -52t-28 -51t-10.5 -45q0 -26 14 -52.5t34 -45.5t41 -34.5t34 -22.5l14 -8h224h56z" />
    <glyph glyph-name="uniE621" unicode="&#xe621;" 
d="M172 -78q16 0 35 3.5t56 21t69 48.5q38 -3 76 1q72 8 133 40t101 82q63 79 52 170q-11 96 -97.5 160t-204.5 64q-22 0 -43 -3q-72 -8 -133.5 -39.5t-100.5 -82.5q-63 -78 -52 -170q6 -51 35.5 -95.5t77.5 -75.5q-4 -32 -45 -63q-19 -14 -12 -35q3 -7 8 -12.5t16.5 -9.5
t28.5 -4zM311 53l-9 -10q-24 -25 -48 -39.5t-46 -20.5q28 39 23 82l-2 14l-12 7q-42 24 -68.5 60t-30.5 78q-9 69 40 129q33 42 84.5 68.5t112.5 33.5q19 2 37 2q64 0 118.5 -23t89 -63t39.5 -89q4 -34 -6 -67t-34 -63q-33 -41 -84.5 -67.5t-112.5 -33.5q-19 -2 -38.5 -2
t-38.5 2zM961 455q9 70 -39 129q-30 38 -76 62t-101 30q-16 2 -33 2q-19 0 -38 -2.5t-36.5 -7.5t-34 -12t-31 -16t-27 -20t-23 -23.5t-18.5 -26t-13 -28.5t-7 -31h4q2 0 4 0.5t4 0.5h4h4q11 0 22 -1q10 54 62.5 90t123.5 36q5 0 9.5 -0.5t9.5 -0.5t10 -1q18 -2 35.5 -6.5
t33.5 -11.5t30.5 -15.5t27 -19.5t22.5 -24q18 -22 25.5 -47t4.5 -51q-4 -31 -23.5 -58.5t-51.5 -45.5l-10 -5l-1 -11q-3 -33 18 -62q-17 5 -35 15.5t-37 29.5l-7 8l-10 -1q-19 -3 -43 -1q1 -6 2 -11v-12q1 -5 1 -11q0 -2 -1 -5v-3q20 -1 36 0q24 -23 52 -36.5t42.5 -16
t26.5 -2.5q33 0 40 19q1 3 1 6t-0.5 6t-2 6t-3.5 5l-4 4q-11 8 -18 16t-11 16t-5 16q12 8 22.5 17t19.5 19t16.5 21t13 23t9 24.5t4.5 24.5z" />
    <glyph glyph-name="uniE622" unicode="&#xe622;" 
d="M653 208v-221h-534v618h357l2 -1h-7v-168h60v27h-32v121l90 -83l25 27l-124 114h-408v-692h608v258h-37zM220 374h237v-19h-237v19zM220 258h166v-37h-166v37zM220 135h138v-18h-138v18zM824 650l-324 -303l-57 -190l191 83l308 294zM823 604l36 -40l-256 -231l-27 32z
M517 226l-20 24l52 105l79 -81zM625 319l248 233l21 -19l-253 -230z" />
    <glyph glyph-name="uniE623" unicode="&#xe623;" 
d="M666 -68q-12 0 -23.5 5t-21.5 15q-19 19 -29 49.5t-7 63.5q12 162 224 166v254q0 57 -24 86t-51 29h-410q-27 0 -49 -8t-34.5 -20t-19 -24t-6.5 -23v-420q1 -17 26 -52.5t39 -37.5h230q14 0 24 -10t10 -24t-10 -24t-24 -10h-231q-23 0 -48.5 18.5t-43 44.5t-29 52
t-11.5 43v420q0 55 49.5 99t127.5 44h410q57 0 100 -49t43 -134v-357l-9 -9q-73 -84 -119 -128.5t-57 -51t-21 -7.5h-5zM809 162q-43 0 -73.5 -8.5t-45.5 -18.5t-24 -26.5t-10.5 -25.5t-2.5 -23q-3 -34 12 -55q42 34 144 149v8zM719 442h-401q-14 0 -24 10t-10 24
q0 9 4.5 17t12.5 12.5t17 4.5h401q14 0 24 -10t10 -24q0 -9 -4.5 -17t-12.5 -12.5t-17 -4.5zM719 268h-401q-14 0 -24 10t-10 25q0 9 4.5 17t12.5 12.5t17 4.5h401q14 0 24 -10t10 -24q0 -10 -4.5 -17.5t-12.5 -12.5t-17 -5zM512 119h-194q-14 0 -24 10t-10 24t10 24t24 10
h194q14 0 24 -10t10 -24q0 -9 -4.5 -17t-12.5 -12.5t-17 -4.5z" />
    <glyph glyph-name="uniE624" unicode="&#xe624;" 
d="M845 481q-23 19 -58 26.5t-49.5 7t-25.5 -2.5q-10 -2 -15.5 -10t-4 -18t9.5 -15.5t18 -4.5q5 1 17.5 2t36.5 -4t39 -18q21 -18 25 -53h-161q-2 15 -6.5 32.5t-14 48.5t-23.5 57.5t-32.5 52.5t-45.5 41t-58 15t-57 -14.5t-43 -40t-30 -52.5t-20.5 -58t-11 -48.5
t-5.5 -33.5h-144q4 35 25 53q32 27 93 20q5 -1 9.5 0.5t8.5 4t6.5 6.5t3.5 9q0 4 -0.5 8t-2 7t-4 6t-6 4.5t-7.5 2.5q-11 2 -25.5 2.5t-49.5 -7t-58 -26.5q-43 -37 -43 -107v-4v-2v-1q0 -59 8 -121t14 -92t16 -72l3 -11q13 -57 58 -83t128 -26h298q83 0 128 26t58 83l3 11
q38 160 38 292q0 70 -43 107zM497 590q27 0 50.5 -21t39.5 -54.5t26 -64t15 -59.5h-249q4 25 10.5 51.5t19.5 63.5t36 60.5t52 23.5zM803 94l-3 -11q-5 -22 -16 -36.5t-41.5 -25.5t-81.5 -11h-298q-51 0 -81.5 11t-41.5 25.5t-16 36.5l-3 11q-33 137 -36 249h654
q-3 -112 -36 -249zM266 270h473v-48h-473v48zM281 146h443v-49h-443v49zM444 507h118v-40h-118v40z" />
    <glyph glyph-name="uniE625" unicode="&#xe625;" 
d="M454 568h113v-64h-113v64zM719 568h-5v-64h5q21 0 39 -10t28.5 -27t10.5 -37v-386q0 -20 -10.5 -37t-28.5 -27t-39 -10h-414q-32 0 -55 21.5t-23 52.5v386q0 30 23 52t55 22h20v64h-20q-59 0 -101 -40.5t-42 -97.5v-386q0 -16 3.5 -31.5t11 -29.5t17 -26t22 -21.5
t26.5 -16t30.5 -10.5t32.5 -4h414q59 0 101 40.5t42 98.5v386q0 22 -7 43.5t-20.5 38.5t-31 29.5t-39.5 19.5t-45 7zM512 695q-32 0 -59 -13.5t-44.5 -33t-31 -46.5t-20.5 -50t-12 -48t-6 -35.5t-1 -17.5q0 -4 1 -9h63v6q1 6 2.5 20t9 44t18.5 54.5t32 44t48 19.5
q73 0 101 -129l9 -53v-6h63q1 5 1 9q-1 18 -6 45t-21 78.5t-54 86t-93 34.5z" />
    <glyph glyph-name="uniE626" unicode="&#xe626;" 
d="M512 465q-68 0 -116.5 -48.5t-48.5 -117t48.5 -117t117 -48.5t117 48.5t48.5 116.5q0 45 -22 83.5t-60.5 60.5t-83.5 22zM512.5 191q-44.5 0 -76.5 32t-32 76.5t32 76.5t76.5 32t76.5 -32t32 -76.5t-32 -76.5t-76.5 -32zM488 700h50v-199h-50v199zM488 99h50v-199h-50
v199zM713 326h199v-50h-199v50zM112 326h199v-50h-199v50zM813 565l-35 35l-141 -141l35 -35zM212 34l35 -35l141 141l-35 35zM637 141l141 -141l35 35l-141 141zM388 460l-141 141l-35 -35l141 -141z" />
    <glyph glyph-name="uniE627" unicode="&#xe627;" 
d="M668 -76h-333q-21 0 -39.5 3t-33.5 8.5t-27.5 13.5t-22.5 17.5t-18 21t-13.5 23.5t-9.5 24.5t-5.5 25t-1.5 25.5v401q0 44 12 81.5t30.5 60t40 35t41.5 12.5h407q29 0 57 -15t45.5 -33.5t33 -42.5t20 -34.5t7.5 -18.5q4 -10 0 -20t-15 -14q-7 -2 -13.5 -1.5t-12 5
t-8.5 11.5q-8 20 -22 42.5t-40 45t-52 22.5h-407q-9 0 -20 -8t-23 -23.5t-20 -43t-8 -61.5v-401q0 -12 2 -24t9 -28t19 -28t35 -20.5t53 -8.5h333q23 0 41.5 2t32.5 5t24 9.5t17 11t11.5 15t7 17t4 20.5t1.5 22v25v242q0 10 -1 15.5t-6.5 12.5t-19 10t-35.5 3h-395
q-39 0 -67 27t-28 64q0 45 28.5 70t78.5 25h383v-133q14 0 23.5 -0.5t28.5 -5.5t31 -14t22 -28.5t10 -45.5v-242q0 -22 -0.5 -34.5t-4 -34.5t-10.5 -34.5t-21 -29t-34 -25.5t-51 -15.5t-71 -6.5zM362 520q-22 0 -34.5 -6.5t-16 -14.5t-3.5 -21q0 -15 13 -26.5t29 -11.5h342
v80h-330zM537 9h-73v65h-83v47h83v15l-9 16h-72l-2 49h59l-59 137h76l48 -143l50 143h75l-60 -137h49v-49h-73l-9 -16v-15h82v-47h-82v-65z" />
    <glyph glyph-name="uniE628" unicode="&#xe628;" 
d="M469 -41l-304 309l368 373h222l104 -73v-234zM256 268l215 -217l323 311v173l-59 41h-175zM666 514h62v-36h-62v36z" />
    <glyph glyph-name="uniE629" unicode="&#xe629;" 
d="M226 137l134 -128l43 45l-133 129zM918 511q-7 11 -38 43t-70.5 71t-56.5 57q-21 22 -51 31t-55.5 5t-39.5 -15q-34 -26 -366 -354q-122 -120 -130 -131q-4 -6 -6.5 -21.5t-3.5 -35.5t-1 -40l-2 -40q0 -20 -1 -30q-5 -41 0 -157l319 -13q396 394 460 462q30 32 43 68
t11 60t-12 40zM805 396q-10 -9 -58 -56.5t-108.5 -108.5t-120 -120.5l-100.5 -100.5l-40 -41l-193 2l-3 190q433 437 444 449q6 7 19.5 12.5t31 3.5t29.5 -16q3 -4 8 -9.5t11 -11.5l13 -13l12 -14l14 -14t13.5 -13t12.5 -12t10.5 -11t8 -9t5.5 -6q11 -11 16 -21.5t5.5 -23.5
t-7 -27t-23.5 -29z" />
    <glyph glyph-name="uniE62A" unicode="&#xe62a;" 
d="M778 329h-136q-7 0 -13 -3.5t-10 -10t-4 -13.5q0 -5 2.5 -10t6 -8.5t8.5 -6t10 -2.5h136q15 0 32 -12t29 -31.5t12 -38.5v-123q-1 -11 -11.5 -32.5t-34.5 -44t-52 -22.5h-482q-17 0 -38.5 9t-40.5 33t-19 55v127q0 9 1.5 17t6 17.5t12.5 17.5q21 19 66 24
q-23 -42 -32 -83l-8 -33h327v-6q0 -5 1.5 -9t4 -7.5t6 -5.5t7.5 -3.5t8 -1.5q6 0 11 2t8.5 5.5t5.5 8.5t2 11v6h178q11 0 19 8t8 19t-8 19t-19 8h-183q-14 77 -64.5 117.5t-133.5 40.5q-55 0 -98 -42q-96 4 -142 -39q-38 -35 -38 -91v-127q0 -35 16 -65t40 -48t49 -28
t47 -10h482q36 0 66.5 19.5t48 46t27.5 50t10 35.5v125q0 20 -7 40t-19.5 37t-28.5 30.5t-35 21t-37 7.5zM541 209h-252q16 42 39 68q2 2 4 5q29 31 65 31q120 0 144 -104zM399 398q59 0 100.5 42t41.5 100.5t-41.5 100.5t-100.5 42t-101 -42t-42 -100.5t42 -100.5t101 -42z
M399 629q37 0 63 -26t26 -63q0 -24 -12 -44.5t-32.5 -32.5t-44.5 -12q-37 0 -63 26.5t-26 63t26 62.5t63 26zM658.5 359q42.5 0 72.5 30t30 72.5t-30 72.5t-73 30q-14 0 -27 -3.5t-24.5 -10.5t-21 -16.5t-16 -20.5t-10 -24.5t-3.5 -26.5q0 -43 30 -73t72.5 -30zM658 511
q20 0 34.5 -14.5t14.5 -35t-14.5 -34.5t-34.5 -14q-13 0 -24.5 6.5t-18 17.5t-6.5 25q0 20 14.5 34.5t34.5 14.5z" />
    <glyph glyph-name="uniE62B" unicode="&#xe62b;" 
d="M512 -70q-100 0 -185.5 49.5t-135 135t-49.5 185.5q0 30 5 60t14 57t22.5 53t30 48.5t37 43t43 37t48.5 30t53 22.5t57 14t60 5q75 0 143.5 -29.5t118 -79t79 -118t29.5 -143.5q0 -153 -108.5 -261.5t-261.5 -108.5zM512 636q-91 0 -168.5 -45t-122.5 -122.5t-45 -168.5
t45 -168.5t122.5 -122.5t168.5 -45t168.5 45t122.5 122.5t45 168.5t-45 168.5t-122.5 122.5t-168.5 45zM450 164l-115 105l23 25l91 -83l220 217l24 -25z" />
    <glyph glyph-name="uniE62C" unicode="&#xe62c;" 
d="M653 -36h-456v675h359v-112h102v-32h54v69l-106 125h-455v-778h541h20v84h-59v-31zM274 399h218v-18h-218v18zM274 199h218v-18h-218v18zM274 307h218v-35h-218v35zM709 148h-33h-26h-34v16q-6 -1 -17 -4t-39 -14t-49.5 -24t-39.5 -35.5t-18 -47.5h204h11h205
q-1 25 -18 47.5t-41 36t-48 23.5t-40 14l-17 4v-16zM698 453q28 -5 47 -49.5t18 -92.5q-1 -26 -17 -55.5t-32 -45.5l-16 -16h-24h-18h-25q-1 1 -3 3.5t-9 9.5t-13 14.5t-13 18.5t-12.5 22t-9.5 24t-4 25q-1 48 17.5 92t46.5 50l39 3z" />
    <glyph glyph-name="uniE62D" unicode="&#xe62d;" 
d="M660 -82l62 57l-305 328l293 323l-62 56l-346 -380z" />
    <glyph glyph-name="uniE62E" unicode="&#xe62e;" 
d="M387 -22l-52 48l257 277l-247 271l53 48l291 -320z" />
    <glyph glyph-name="uniE62F" unicode="&#xe62f;" 
d="M348 -80q-25 0 -43 19q-17 18 -16.5 43t18.5 42l282 271l-283 282q-18 17 -18 42t17.5 43t42.5 18t43 -18l327 -324q18 -18 18 -43.5t-19 -43.5l-327 -314q-17 -17 -42 -17z" />
    <glyph glyph-name="uniE630" unicode="&#xe630;" 
d="M824 58l-135 126q53 73 53 162q0 119 -86 201q-82 77 -192 77q-115 0 -197 -81.5t-82 -196.5q0 -38 10 -74t28 -66.5t44 -56t56.5 -43.5t66.5 -28t74 -10q86 0 157 49l138 -128q14 -13 32 -13q21 0 35 15q13 14 12.5 33.5t-14.5 33.5zM252 346q0 88 62 150t150 62
q34 0 66.5 -10.5t58.5 -30.5t45.5 -46t30 -58t10.5 -67q0 -87 -62 -149.5t-149 -62.5q-29 0 -56.5 8t-51 21.5t-43 33t-33 43t-21 50.5t-7.5 56z" />
    <glyph glyph-name="uniE631" unicode="&#xe631;" 
d="M768.5 649q-54.5 0 -93.5 -38.5t-39 -93.5q0 -14 3 -28t8.5 -26.5t14 -23.5t18.5 -20l-131 -214q-22 8 -44 8q-9 0 -18 -1.5t-18 -3.5l-130 223q41 38 41 93q0 53 -38 90.5t-91 37.5t-90.5 -37.5t-37.5 -90.5q0 -26 10 -50t27.5 -41t41 -27.5t49.5 -10.5q8 0 16 1t16 3
l130 -224q-40 -39 -40 -95q0 -54 38.5 -93t93.5 -39t94 39t39 93q0 51 -35 89l134 219q16 -4 32 -4q36 0 66.5 18t48 48.5t17.5 66.5q0 55 -39 93.5t-93.5 38.5zM188 524q0 26 18.5 44.5t44.5 18.5t45 -18.5t19 -44.5t-19 -45t-45 -19t-44.5 19t-18.5 45zM505 13
q-18 0 -33.5 9t-24.5 24.5t-9 33.5q0 28 19.5 48t47.5 20t48 -20t20 -48t-20 -47.5t-48 -19.5zM769 449q-14 0 -26.5 5.5t-21.5 14.5t-14.5 21.5t-5.5 26.5q0 28 20 48t48 20q18 0 33.5 -9.5t24.5 -25t9 -33.5q0 -28 -19.5 -48t-47.5 -20z" />
    <glyph glyph-name="uniE632" unicode="&#xe632;" 
d="M777 -105h-530q-57 0 -97 40t-40 97v536q0 57 40 97t97 40h530q37 0 68.5 -18t50 -50t18.5 -69v-536q0 -57 -40 -97t-97 -40zM247 630q-26 0 -44 -18t-18 -44v-536q0 -17 8 -31.5t22.5 -22.5t31.5 -8h530q26 0 44 18t18 44v536q0 26 -18 44t-44 18h-530zM519 415
q11 0 20.5 -0.5t16.5 -1.5t11.5 -2t7.5 -3t4 -4q2 -4 -4 -11q-7 -8 -7 -12q-2 -34 -4.5 -60t-4.5 -45t-3 -32h89q62 3 96 7v-49q-21 2 -44.5 3t-49.5 1h-100q-38 -96 -228 -151q-4 6 -8 15q-4 7 -9 13t-11 10.5t-14 8.5q159 13 225 104h-117q-38 0 -104 -4v47q57 -5 102 -5
h130q11 43 6 171zM536 528l2 -6q1 -3 1.5 -5.5t0.5 -4.5l2 -4v-4q1 -2 1.5 -3.5t1 -2.5t0.5 -2q1 -6 2 -10t2 -7q2 -3 2 -5h126q15 0 49 5l-4 -43v-23q0 -24 4 -41h-53q4 13 4 41v21h-336v-17q0 -24 4 -41h-53q1 3 1.5 7t1 9t1 11t0.5 14v17q0 30 -4 45q19 -5 49 -5h161
q-2 11 -10 32q-2 6 -4 9.5t-3 5.5zM364 338q22 -9 45 -22.5t47 -30.5l-35 -28q-5 4 -11 8t-12.5 8t-14 8.5t-15.5 8.5l-18 10q-8 4 -18 8zM409 406q27 -13 49 -26.5t38 -28.5l-30 -34q-10 10 -23 20t-28.5 19.5t-33.5 17.5zM566 185q98 -47 160 -87l-40 -45q-52 51 -147 94z
" />
    <glyph glyph-name="uniE633" unicode="&#xe633;" 
d="M864 367l-30 -30v-16h-67q-2 86 -45.5 158.5t-117.5 115t-160 42.5q-88 0 -162.5 -43.5t-118 -118t-43.5 -162.5q0 -74 31 -138.5t85 -109.5l-73 -81l23 -21l75 83q83 -57 183 -57q99 0 181 55l73 -81l23 21l-72 79q34 27 59 62.5t40 77.5t19 87h67v-14l29 -31h41v122
h-40zM444 20q-121 0 -207 85.5t-86 207.5q0 47 14.5 92t42 81t63.5 63t80.5 42t92.5 15q78 0 144.5 -38t106 -103.5t41.5 -143.5h-72q-4 88 -67.5 150t-152.5 62q-91 0 -155.5 -64.5t-64.5 -155.5t64.5 -155.5t155.5 -64.5q85 0 147.5 57t71.5 140h73q-9 -113 -93 -191.5
t-199 -78.5zM564 321q-4 47 -38.5 79.5t-81.5 32.5q-25 0 -47 -9.5t-38 -25.5t-26 -38.5t-10 -46.5q0 -33 16.5 -60.5t44 -44t60.5 -16.5q29 0 54 13t42 35.5t22 49.5h70q-9 -70 -62.5 -118.5t-125.5 -48.5q-79 0 -134.5 55.5t-55.5 134t55.5 134t134.5 55.5
q76 0 130.5 -52.5t58.5 -128.5h-69zM531 290q-8 -29 -32 -48t-55 -19q-15 0 -28.5 4.5t-24.5 13t-19.5 19.5t-13 24.5t-4.5 28.5q0 37 26.5 63t63.5 26q23 0 42.5 -10.5t32 -29t14.5 -41.5h-113v-31h111z" />
    <glyph glyph-name="uniE634" unicode="&#xe634;" 
d="M892 367q-7 24 -25.5 71t-33.5 82l-14 35q8 40 -24.5 71.5t-61.5 31.5h-439q-23 0 -41.5 -12t-28.5 -29t-17 -34t-9 -28l-2 -12q-27 -68 -60 -152q-5 -13 -6.5 -27t1 -25.5t7 -23t10.5 -21t12.5 -18t12.5 -15t11.5 -11t8.5 -6.5l3 -2v-195q0 -31 44 -68t66 -37h431
q29 0 61.5 36t32.5 71v186q3 4 8 9t17.5 21.5t21.5 31.5t14 34.5t0 35.5zM289 600h439q7 0 13 -4.5t9.5 -12t3.5 -16.5q0 -14 -7.5 -23.5t-18.5 -9.5h-439q-4 0 -8 1.5t-7 4.5t-5.5 7t-3.5 9t-1 11q0 14 7.5 23.5t17.5 9.5zM775 53q0 -17 -11 -34t-37 -17h-423q-16 0 -36 16
t-20 44v178l75 10v-144h392v138h60v-191zM645 215v-41h-264v41h96v12h67v-12h101zM828 331q-3 -15 -13.5 -28t-26.5 -20.5t-34.5 -8t-40 12t-40.5 38.5q-2 -2 -4.5 -6.5t-12 -15t-19 -19t-23.5 -15.5t-27 -7q-22 0 -40.5 15t-27.5 29l-8 15l-3 -6q-2 -4 -9.5 -14t-15.5 -18
t-21 -14.5t-26 -6.5q-22 0 -43.5 16t-32.5 32l-11 15q-18 -26 -39.5 -38.5t-40.5 -12t-35 8t-26.5 20.5t-12.5 28q-4 21 10.5 65.5t30.5 77.5l16 34h253h13h252q58 -114 58 -167v-10z" />
    <glyph glyph-name="uniE635" unicode="&#xe635;" 
d="M817 605q0 -8 -5.5 -13.5t-12.5 -5.5h-574q-5 0 -9 3t-6.5 7t-2.5 9v28q0 8 5.5 13.5t12.5 5.5h574q5 0 9 -2.5t6.5 -7t2.5 -9.5v-28zM541 544h282q8 -18 20.5 -46t31.5 -87.5t16 -86.5q-1 -18 -18.5 -33.5t-43 -22t-52.5 -4t-51 23t-34 55.5q-2 -8 -6.5 -19.5t-27 -31
t-55.5 -19.5q-21 0 -38.5 7.5t-26.5 19t-15.5 22.5t-8.5 19l-2 8q-1 -3 -2.5 -8t-8 -18.5t-15.5 -23.5t-26.5 -18t-38.5 -8q-15 0 -28 3.5t-22 10t-16 14t-11 15t-7 13.5t-4 10l-1 4q-10 -35 -34 -55.5t-51 -23t-52.5 4t-43 22t-18.5 33.5q-6 58 67 218l1 2h282h58zM761 229
v-187h-496v187h-68v-187v-94h68h496h42h25v281h-67z" />
    <glyph glyph-name="uniE636" unicode="&#xe636;" 
d="M295 382h366v-51h-366v51zM295 240h366v-52h-366v52zM816 -14q0 -16 -11 -27.5t-27 -11.5t-27 11.5t-11 27t11 27t27 11.5q26 0 35 -24q3 -8 3 -14zM219 -14q0 -16 -11 -27.5t-27 -11.5t-27 11.5t-11 27t11 27t27 11.5q26 0 36 -24q2 -8 2 -14zM652 44h-340
q-38 0 -73 17.5t-57.5 42.5t-35 50.5t-12.5 43.5v134q0 85 52 139t117 54h349v-53h-349q-45 0 -80.5 -39t-35.5 -101v-134q0 -7 8.5 -23t23.5 -34t40 -31t53 -13h340q31 0 65 31t34 79v304q0 50 38.5 96t100.5 46v-53q-39 0 -62.5 -30t-23.5 -59v-304q0 -83 -69 -134
q-41 -29 -83 -29z" />
    <glyph glyph-name="uniE637" unicode="&#xe637;" 
d="M726 -42h-430q-9 0 -17.5 1.5t-22 6t-25 15.5t-22 27t-16.5 43t-6 61h55q0 -17 2 -32t7 -31.5t16.5 -26.5t28.5 -10h430q19 0 34 8.5t21.5 21t9.5 22.5t3 17v424q0 50 -16.5 66.5t-46.5 16.5h-409v54h409q57 0 87.5 -35.5t30.5 -101.5v-424q0 -44 -33 -83.5t-90 -39.5z
M322 445h375v-52h-375v52zM322 256h375v-53h-375v53zM254 593q0 -16 -11.5 -27.5t-28 -11.5t-28 11.5t-11.5 27.5q0 10 5.5 19t14.5 14.5t19 5.5q8 0 15.5 -3t12.5 -8.5t8.5 -12.5t3.5 -15zM254 421.5q0 -16.5 -11.5 -28t-28.5 -11.5q-8 0 -15 3t-12 8.5t-8.5 12.5t-3.5 15
q0 11 5.5 20t14.5 14t19 5q17 0 28.5 -11t11.5 -27.5zM254 250q0 -16 -11.5 -27.5t-28 -11.5t-28 11.5t-11.5 27.5q0 8 3.5 15t8.5 12.5t12 8.5t15 3q27 0 37 -25q2 -7 3 -14z" />
    <glyph glyph-name="uniE638" unicode="&#xe638;" 
d="M512 704q-110 0 -203 -54t-147 -147t-54 -203t54 -203t147 -147t203 -54t203 54t147 147t54 203q0 82 -32 157t-86 129t-129 86t-157 32zM512 -42q-93 0 -171.5 46t-124.5 124.5t-46 171.5t46 171.5t124.5 124.5t171.5 46t171.5 -46t124.5 -124.5t46 -171.5
q0 -138 -97 -238q-96 -99 -233 -104h-12zM676 316h-158v226q0 10 -7.5 17t-17.5 7q-5 0 -9.5 -2t-8 -5t-5.5 -7.5t-2 -9.5v-258q0 -3 0.5 -5.5t1.5 -4.5t3 -4q9 -19 30 -19h173q14 0 23.5 9.5t9.5 23.5q0 8 -4.5 16t-12 12t-16.5 4z" />
    <glyph glyph-name="uniE639" unicode="&#xe639;" 
d="M824 383q-7 8 -18 12q-7 1 -16 1h-179h-2l-3 2q-2 1 -3 2l-6 7l-52 187q-1 5 -3 9t-4 7q-10 14 -26 15q-7 0 -12.5 -3t-8 -5.5t-5.5 -6.5l-4 -8q-2 -4 -3 -9l-52 -186q-1 -3 -5.5 -7t-8.5 -4h-179q-13 0 -21 -3q-2 -1 -3 -2l-4 -2q-1 -1 -2 -3l-4 -3q-6 -8 -6 -18
q0 -12 8 -22l4 -4q2 -2 4 -3.5t5 -3.5l144 -95q2 -1 4.5 -5.5t1.5 -8.5v-3l-56 -184q-3 -9 -3 -17q0 -11 6 -20q9 -13 25 -12q13 1 28 12l141 120q2 3 7 3t7 -3l149 -121q15 -10 28 -11h1q5 0 12 3t10 9q6 8 7 20q0 8 -4 17l-63 185v3t1 6t2.5 5t2.5 3l143 94q2 1 3 2t2.5 2
t2.5 2l3 2l2 3q8 10 8 22q0 10 -6 18z" />
    <glyph glyph-name="uniE63A" unicode="&#xe63a;" 
d="M498 300h-163v-34h128v-176h76v25h-41v185zM560 300h112v-34h-112v34zM824 498q-1 18 -8 34.5t-17 27.5t-19 14q-9 2 -15 7.5t-18 19.5l-18 21q-5 5 -21.5 26.5t-27.5 30.5t-21 7t-35.5 -12t-53.5 -22.5t-50 -23.5q-15 -8 -39.5 -16t-49.5 -14.5t-49 -10.5t-40 -4
q-33 0 -71.5 -18t-52.5 -44q-13 -24 -16.5 -114t1.5 -172q5 -95 131 -231q23 -25 24 -24l2 -66h46v27h199v-27h51v60q33 21 91 100t59 111q1 14 6 88.5t9 141.5t3 83zM717 155q-4 -41 -77.5 -97t-133.5 -65q-75 -10 -164 80q-12 13 -20 23q-10 12 -18 59t-9 94.5t2 83.5
q2 12 8 22t13.5 16.5t16.5 11t17.5 6.5t15.5 3.5t11 1.5h4h273q13 0 25 -5t19.5 -12.5t12 -17.5t4.5 -20q0 -6 1.5 -48t1.5 -70t-3 -66zM766 390h-27l-23 35l-411 -4l-46 -42q-1 5 -1.5 13t0.5 29.5t4.5 38t13.5 32t26 18.5q7 1 38.5 6.5t58.5 10t56 12t40 13.5
q26 16 66.5 33t63.5 21q20 4 32 -7t20 -29q3 -12 1 -36t-7 -48l-4 -25h45q21 33 27 37q2 2 9 3.5t12 2.5h6v-114z" />
    <glyph glyph-name="uniE63B" unicode="&#xe63b;" 
d="M292 465h371v-37h-371v37zM292 362h371v-37h-371v37zM292 258h371v-36h-371v36zM292 155h371v-37h-371v37zM292 52h204v-37h-204v37zM818 690h-529v-110h-83v-670h529v110h83v670zM698 -53h-455v597h455v-597zM781 56h-46v524h-409v73h455v-597z" />
    <glyph glyph-name="uniE63C" unicode="&#xe63c;" 
d="M766 50q-2 0 -4 -0.5t-3.5 -1.5t-3 -2.5t-2.5 -3t-1.5 -3.5t-0.5 -4q0 -7 4.5 -11.5t11 -4.5t11 4.5t4.5 11.5q0 4 -2 7.5t-6 5.5t-8 2zM910 161q-59 77 -184 165l-2 2q133 127 155 148q19 17 21 49t-17 59q-10 13 -21.5 24t-19 17t-20 14.5t-15.5 11.5q-8 5 -20 6
t-25 -2.5t-26 -11t-22 -17.5l-93 -114q-5 11 -13.5 30t-34 59t-51.5 58q-33 25 -92.5 43.5t-104.5 13.5t-68.5 -41t-12.5 -71q6 -19 31.5 -49t47.5 -51l23 -21l-26 -24q-68 50 -89 75q-25 28 -66 28q-9 0 -19.5 -3.5t-26 -14.5t-25.5 -39t-11 -69q-1 -96 115 -198l30 -24
q-88 -104 -102 -118q-8 -8 -10 -25.5t3.5 -40.5t19.5 -41q19 -24 50 -53t51 -45q11 -12 47.5 -2t71.5 37q21 17 56.5 51t60.5 59l25 26q121 -126 158 -157q27 -24 82.5 -22t99.5 30q20 14 33.5 24.5t18 15.5t9.5 12t8 11q7 8 15 25t14 42.5t-1 57t-28 60.5zM773 575l54 -47
l-196 -168l-35 32zM286 -41l-94 103l182 172l95 -103zM817 -19q-12 -10 -36 -17.5t-60 -1.5t-63 33q-26 27 -87.5 95.5t-110.5 123.5l-48 55q-6 0 -16 -1t-38 -0.5t-53 4t-53.5 14t-47.5 27.5q-29 27 -39.5 72t-5 78t14.5 36q2 -3 6 -7.5t16.5 -17t24.5 -24t29 -25t32 -22
t31 -13.5t29 -2q29 7 52 34.5t26.5 57.5t-14.5 55q-18 20 -43 46t-42 42l-16 16q6 1 15 1.5t35 -1t49.5 -6.5t50.5 -18.5t44 -34.5q13 -15 22 -33.5t13 -36t6.5 -35t2 -31.5t-1.5 -25.5t-2 -17.5l-1 -7q280 -246 308 -287q10 -16 10 -35t-7 -38t-15.5 -33t-16.5 -20z" />
    <glyph glyph-name="uniE63D" unicode="&#xe63d;" 
d="M899 180q-4 2 -12 5q-14 4 -21.5 7t-21 8.5t-21.5 11t-17 12.5t-13.5 15t-5.5 17q-1 12 4.5 22.5t14 18t18 14.5t18 15.5t11.5 16.5q4 14 4 28t-2 21l-2 8h-16v13h25l-7 37q-26 93 -116 99h-11q-27 0 -48.5 -7.5t-35 -19.5t-24 -26.5t-15 -29t-7.5 -26.5t-4 -20l-1 -7h25
v-13h-16q-1 -3 -2.5 -8t-1.5 -20t4 -29q4 -10 15.5 -20.5t23 -18.5t20.5 -20.5t7 -27.5q-3 -30 -53 -54q34 -26 52 -79.5t18 -113.5q0 -12 -5 -24l30 1h36q2 0 7 -0.5t19.5 -0.5t28.5 0.5t33.5 2t36 3.5t33.5 6t29 9.5t19.5 14t7.5 18.5q0 31 -7 60.5t-21 52t-33 28.5z
M578 189q-4 2 -17.5 6.5t-20.5 7t-20 8t-21 9.5l-19 10q-11 5 -17.5 11t-13 13t-10 15.5t-4.5 16.5q-1 19 10 35t25.5 26t29.5 23.5t19 25.5q6 18 6 36t-3 27l-3 10h-20v16h31v6q0 4 -2 16t-5 23.5t-9.5 27t-15 29t-21.5 27t-29.5 23.5t-39 16t-48.5 6q-119 0 -158 -114
q-12 -32 -13 -60h31v-16h-19q-14 -33 0 -73q3 -10 13.5 -20.5t22.5 -19.5t23.5 -18.5t18.5 -23t5 -28.5q-1 -8 -4 -16.5t-10 -15.5t-13.5 -13t-17.5 -11.5t-18.5 -9.5t-21 -9.5t-20 -8t-20 -7t-18.5 -6.5q-36 -12 -56.5 -64.5t-20.5 -115.5q0 -67 273 -67h46q3 -1 9 -1h25
q19 0 37 0.5t42.5 2.5t45.5 4.5t42.5 8t36.5 12.5t24.5 17t9.5 23q0 63 -20.5 115.5t-56.5 64.5z" />
    <glyph glyph-name="uniE63E" unicode="&#xe63e;" 
d="M604 517l-373 -374v0v0l-60 -184l184 60v0v0l374 373zM316 123l-20 21l309 309l20 -21zM729 641l-82 -82l124 -124l82 82zM710 0h-345l-84 -41h429v41z" />
    <glyph glyph-name="uniE63F" unicode="&#xe63f;" 
d="M765 -79h-506q-51 0 -87 36t-36 87v512q0 51 36 87t87 36h506q51 0 87 -36t36 -87v-512q0 -51 -36 -87t-87 -36zM259 624q-28 0 -48 -20t-20 -48v-512q0 -28 20 -48t48 -20h506q28 0 48 20t20 48v512q0 28 -20 48t-48 20h-506zM241 430h93v45h91v-43h90v-289h-90v18h-104
v-18h-80v287zM336 364h-15v-37h15v37zM321 263v-39h15v39h-15zM433 364h-15v-37h15v37zM433 263h-15v-39h15v39zM533 464h217v-65l-41 -77q52 -47 48 -85q4 -66 -106 -65l-28 53v-98h-90v337zM651 393h-28v-59zM623 314v-71q65 -5 0 71z" />
    <glyph glyph-name="uniE640" unicode="&#xe640;" 
d="M512 -46l-284 284q-5 4 -12 11.5t-23.5 28.5t-29 43t-22.5 53.5t-10 61.5q0 64 25 111.5t72 73t110 25.5q84 0 174 -89q90 89 174 89q96 0 151.5 -56.5t55.5 -153.5q0 -30 -10 -61.5t-22.5 -53.5t-29 -43t-23.5 -28.5t-12 -12.5zM338 574q-20 0 -38 -3.5t-36.5 -12.5
t-31.5 -24t-21.5 -40t-8.5 -58q0 -21 8 -44t18 -39.5t22.5 -32.5t18.5 -22l8 -8l235 -234l234 233q1 1 3 2.5t7 7.5l10 12q5 6 12 15t12.5 18t11.5 20.5t10.5 23t7 24t2.5 24.5q0 24 -4.5 43.5t-12 33.5t-18 25t-22 17.5t-25.5 11t-27 6t-27 1.5q-38 0 -80 -31.5t-66 -60.5
l-28 -35l-28 35q-24 29 -66 60.5t-80 31.5z" />
    <glyph glyph-name="uniE641" unicode="&#xe641;" 
d="M729 408q-2 105 -65 179t-152 74t-152 -74t-65 -179h-73v-469h580v469h-73zM512 623q73 0 125 -63t54 -152h-358q2 89 54 152t125 63zM764 -23h-504v393h504v-393zM586 264h-138v-157h138v157zM548 145h-63v81h63v-81z" />
    <glyph glyph-name="uniE642" unicode="&#xe642;" 
d="M730 679q-31 0 -65 -13.5t-60 -33t-48 -39t-33 -32.5l-12 -14q-4 5 -12 14t-32.5 32t-49 40.5t-59 31.5t-65.5 14q-43 0 -80.5 -11.5t-68.5 -36t-49 -68t-18 -101.5q0 -99 94 -202l15 -15l325 -324l325 324q5 4 12 11.5t26 31t33 48t26 59t12 67.5q0 39 -8.5 72
t-23.5 56.5t-35 41t-44.5 28t-50.5 15t-54 4.5z" />
    <glyph glyph-name="uniE643" unicode="&#xe643;" 
d="M719 602q-31 24 -84.5 39t-109 18t-109 -6.5t-82.5 -30.5q-41 -28 -80.5 -95t-67 -161t-30.5 -184q-1 -47 17.5 -86.5t48 -65.5t67.5 -46t72.5 -29.5t65.5 -13.5q11 -1 19.5 5.5t10.5 17.5q0 5 -1 9.5t-3.5 8t-6.5 6.5q22 -7 44 -8h11q53 0 100 25.5t79.5 64.5t57.5 87
t38.5 90.5t17.5 77.5q2 9 -3.5 16t-14.5 8q-8 1 -15 -4q-57 72 -69 104q-5 15 -15.5 19.5t-18.5 0.5l-8 -4q-32 -40 -72 -70t-79 -46t-74 -25.5t-68.5 -11.5t-51.5 -2t-33 2q33 6 68.5 20.5t62 29.5t52 33t35 25.5t15.5 12.5q7 6 7.5 14.5t-5.5 15t-14.5 7.5t-15.5 -5
q-3 -3 -7.5 -7t-20.5 -15.5t-31.5 -22t-39 -23.5t-45 -22.5t-47.5 -16.5t-49 -8q23 80 59 143t68 86q21 15 65 22t91.5 5.5t94 -13.5t71.5 -32q17 -13 26 -20.5t25 -22.5t24.5 -28t20.5 -31.5t18 -39t11 -46t4.5 -56t-4.5 -64.5q-7 -51 -26.5 -94t-39.5 -68.5t-50 -48.5
t-45 -31t-37 -18l-4 -2q-10 -5 -13.5 -15t1.5 -20q7 -15 23 -15l12 2l3 2q14 6 23.5 11t29 16t34.5 23.5t35 30.5t35 40t30 48.5t25.5 60t15.5 71.5q5 35 5 68t-3 59t-11.5 51t-16 42.5t-21 37t-23 31t-25.5 26.5t-25 22t-24 19zM647 364l94 -86q-10 -34 -24 -67t-36.5 -69
t-49 -62.5t-63 -43t-76.5 -14.5q-34 2 -65 20.5t-52.5 43.5t-40.5 59.5t-29.5 61t-18.5 54.5q144 -16 325 82zM227 307h4h3q-2 -6 -1 -11q3 -12 7.5 -30.5t20.5 -62.5t36.5 -81t55.5 -74t76 -54q-13 2 -28.5 6t-44 12.5t-52.5 23t-47 33.5t-36 48t-12 63q2 61 17 127h1z
M489 165h65v-45h-65v45z" />
    <glyph glyph-name="uniE644" unicode="&#xe644;" 
d="M355 521q10 0 19.5 3t17.5 9t13.5 13.5t9 17t3.5 19.5q0 9 -2.5 17t-6.5 14.5t-9.5 12.5t-12.5 10t-15 6t-17 2q-25 0 -43.5 -18t-18.5 -44t18.5 -44t43.5 -18zM450 298q-2 11 -0.5 31t3.5 40l3 21l148 -75l38 16q-172 122 -185 137q-9 11 -34 23.5t-38 13.5
q-4 -1 -9 -2.5t-17.5 -8.5t-21.5 -15.5t-16 -23t-5 -31.5q4 -42 6.5 -132t-0.5 -100q-2 -18 -100 -226h55q92 204 108 225q12 12 29.5 1t23.5 -27t26 -204l59 -6q-5 208 -22 225q-5 7 -13.5 23.5t-16.5 37.5t-12.5 34.5t-8.5 22.5zM718 356l-25 -17l84 -120l25 17zM561 247
l84 -120l24 17l-83 120zM604 277l84 -120l75 52l-84 120z" />
    <glyph glyph-name="uniE645" unicode="&#xe645;" 
d="M464 583h92v-11h-92v11zM464 546h92v-529h-92v529zM443 535h-155l-56 -68l53 -81h158v149zM581 535h155l56 -68l-53 -81h-158v149zM581 357h115l48 -59l-45 -71h-118v130z" />
    <glyph glyph-name="uniE646" unicode="&#xe646;" 
d="M796 41h-614v453h156v28h-184v-509h670v187h-28v-159zM315 195q94 105 276 101q36 -1 60 -5v-96l219 196l-221 196v-93q-238 21 -310 -147q-32 -75 -24 -152z" />
    <glyph glyph-name="uniE647" unicode="&#xe647;" 
d="M599 -46h-174h-339q4 -6 12 -14.5t32.5 -22.5t50.5 -14h326h10h326q10 0 19 1.5t16.5 4.5t15 7t13 8t10.5 8.5t9 8.5l6 7q3 2 4 4l2 2h-339zM474 3l33 562h-67l30 99h184v33h-208l-41 -132h-300l28 -562h341zM428 526h36v-110h-71zM140 526h253l-34 -110h-219v110z
M512 252h160h82h160q-1 2 -3 5.5t-7 12.5t-10.5 17.5t-13.5 19t-15 18t-15.5 12.5t-15.5 5h-96h-50h-96q-10 0 -21.5 -9.5t-21.5 -22.5t-18.5 -26t-13.5 -22zM592 -3h96h50h96q15 0 35 25t33 50l12 25h-160h-82h-160q2 -4 5 -11t13 -24t19 -30t21 -24t22 -11zM546 230v-17
h-34v-81h34v-14h33v14h37v-14h32v14h37v-14h33v14h37v-14h33v14h37v-14h33v14h44v81h-44v17h-33v-17h-37v17h-33v-17h-37v17h-33v-17h-37v17h-32v-17h-37v17h-33z" />
    <glyph glyph-name="uniE648" unicode="&#xe648;" 
d="M267 282l-139 143l139 201v-344zM326 464v201q18 6 46.5 13.5t94 17t103.5 2.5zM495 526l160 150q1 -1 4.5 -3t14 -8.5t20.5 -13t24.5 -16.5t27.5 -19.5t27.5 -21.5t25.5 -23t21 -23t15 -22h-340zM665 487h201q45 -160 51 -248zM749 300l150 -131q-97 -150 -150 -199v330
zM691 135l-256 -237l256 13v224zM507 60h-310l166 -143zM352 118l-224 17l-21 210z" />
    <glyph glyph-name="uniE649" unicode="&#xe649;" 
d="M465 135q-29 0 -50 -20.5t-21 -50t21 -50t50 -20.5t49.5 20.5t20.5 50.5q0 42 -36 62q-17 8 -34 8zM730 135q-29 0 -49.5 -20.5t-20.5 -50t20.5 -50t49.5 -20.5q19 0 35.5 9.5t26 26t9.5 35.5q0 42 -37 62q-16 8 -34 8zM909 543q-5 2 -10 2q-7 0 -14 -3t-12 -9t-7 -13
l-5 -16h-516l-18 75q-3 12 -12.5 19.5t-21.5 7.5h-180q-8 0 -14 -3t-11 -7.5t-7.5 -11t-2.5 -13.5q0 -15 10 -25t25 -10h152l83 -335q1 -5 4.5 -10t8 -8.5t10 -5.5t11.5 -2h427q12 0 21 7t12 18l90 300q2 5 2 10q0 11 -7 20.5t-18 12.5zM436 293l-16 94h151v-94h-135z
M761 293h-129v94h148z" />
    <glyph glyph-name="uniE64A" unicode="&#xe64a;" 
d="M754 552h-90q2 41 -21 66q-24 26 -59 26h-171q-17 0 -30.5 -5.5t-23.5 -16.5q-22 -25 -21 -70h-68q-35 0 -46.5 -15.5t-11.5 -50.5q0 -8 1.5 -15.5t4.5 -13.5t7 -10.5t9 -8.5t9.5 -6t9.5 -4v-373q0 -36 21 -60t48 -24h380q27 0 48 24t21 60v373q17 6 29 20t12 38t-4 37
t-17 21t-37 8zM375 608q14 15 38 15h171q26 0 43 -19q8 -10 12 -23t4 -29h-284q0 37 16 56zM702 -7h-380q-17 0 -32.5 17t-15.5 45v369h476v-369q0 -10 -2 -18.5t-6 -15.5t-8.5 -12.5t-10 -8.5t-11 -5t-10.5 -2zM759 447l-9 -2h-476l-9 2q-3 0 -6.5 1.5t-10 5.5t-11 12.5
t-4.5 19.5q0 9 0.5 14.5t1.5 10.5t3 8.5t4.5 5.5t6.5 3t9 1.5t12 0.5h484q24 0 30.5 -7.5t6.5 -36.5q0 -15 -8 -24.5t-13.5 -12t-10.5 -2.5zM337 50h81v326h-81v-326zM359 354h38v-283h-38v283zM460 50h81v326h-81v-326zM482 354h38v-283h-38v283zM583 50h81v326h-81v-326z
M604 354h38v-283h-38v283z" />
    <glyph glyph-name="uniE64B" unicode="&#xe64b;" 
d="M512 -5q-126 0 -215.5 89.5t-89.5 215.5t89.5 215.5t215.5 89.5t215.5 -89.5t89.5 -215.5q0 -62 -24 -118.5t-65 -97.5t-97.5 -65t-118.5 -24zM512 566q-110 0 -188 -78t-78 -188q0 -115 83 -194q78 -72 183 -72q110 0 188 78t78 188q0 54 -21 103.5t-56.5 85t-85 56.5
t-103.5 21zM512 518q-59 0 -109.5 -29t-79.5 -79.5t-29 -109.5q0 -90 64 -154t154 -64q44 0 84.5 17t70 46.5t46.5 70t17 84.5q0 59 -29 109.5t-79.5 79.5t-109.5 29zM493 254v213h38v-174h158v-39h-196z" />
    <glyph glyph-name="uniE64C" unicode="&#xe64c;" 
d="M759 168q-18 57 -85.5 111.5t-121.5 66.5q25 8 44.5 25.5t30.5 42t11 51.5q0 17 -4.5 33.5t-12.5 30.5t-19.5 25.5t-25.5 20t-30.5 13t-33.5 4.5q-53 0 -90 -37t-37 -90q0 -16 4.5 -32t12 -29.5t18.5 -24.5t24 -19.5t28 -13.5q-55 -13 -122 -67t-85 -111
q-11 -45 -5.5 -80.5t19.5 -57.5l13 -22h193h54h193q32 41 35 99q1 31 -8 61z" />
    <glyph glyph-name="uniE64D" unicode="&#xe64d;" 
d="M728 476l148 63l-35 25l-158 -74q-3 1 -5 1.5t-4 0.5l-6 2q-2 0 -4 1l158 68l-34 24l-178 -82q-22 2 -49 3.5t-51.5 1t-49.5 -1.5t-45 -2.5t-35.5 -2.5t-24.5 -2l-9 -1q-47 -8 -84.5 -20.5t-57 -25t-32.5 -26t-17 -21t-4 -11.5q0 -2 -0.5 -6.5t-1 -14t-1 -26t0 -49
t2.5 -76.5t30 -82t66 -60.5t78 -39t64 -23t27 -6.5h155q4 0 9.5 1.5t23.5 6.5t35 11.5t40.5 16.5t44 22t41.5 28.5t35.5 34.5t24.5 41.5t11 48.5q1 28 2 52t1 40v28q0 13 -0.5 20.5t-1 13.5t-0.5 8.5t-0.5 5t-0.5 4.5q0 5 -7 16t-34 30t-67 34zM634 467l-338 -158
q-21 5 -39 11l351 151q14 -2 26 -4zM171 384q0 39 93 66.5t225 27.5q10 0 20.5 -0.5t20 -1t19.5 -0.5l-316 -148q-30 12 -46 26.5t-16 29.5zM489 290q-29 0 -57.5 1.5t-54.5 4.5t-50 7l358 155q38 -9 65 -20.5t42 -25t15 -28.5q0 -26 -42.5 -47.5t-116 -34t-159.5 -12.5z
" />
    <glyph glyph-name="uniE64E" unicode="&#xe64e;" 
d="M557 -32q0 1 7 2t12 2.5t14 5.5t16.5 11t16.5 16.5t18 25t17 35.5q17 42 60.5 161t77.5 217l35 97l-368 75l-152 -365l-61 22l177 410l465 -109q-7 -22 -18.5 -58.5t-43 -132t-58.5 -171.5t-55 -146t-43 -87q-18 -22 -44 -36.5t-50 -19.5t-47 -6.5t-35 3.5
q-35 8 -366 187l25 117q273 -139 325 -162l2 -6q3 -5 7 -14t9.5 -19.5t12.5 -21t14 -18.5t15 -12t15 -3zM520 482l-49 14l13 46l49 -15zM726 421l-164 47l13 46l164 -48zM482 356l-50 14l13 46l50 -15zM688 295l-165 47l13 46l165 -48zM438 240l-49 14l13 45l49 -14z
M644 179l-164 47l13 45l164 -47z" />
    <glyph glyph-name="uniE64F" unicode="&#xe64f;" 
d="M517 475l-14 50l-118 -193l55 16zM913 376l-305 186l28 -98l251 -152l-138 -228l-89 53q-10 -6 -20 -9l-231 -65l229 -139q18 -11 38.5 -6t31.5 23l222 366q18 29 -3 57q-6 8 -14 12zM666 226l-117 411q-6 20 -24 30.5t-39 4.5l-362 -102q-21 -6 -31 -24.5t-4 -38.5
l116 -412q6 -20 24 -30t39 -5l362 103q21 6 31 24t5 39zM204 243l-74 256l386 111l74 -257z" />
    <glyph glyph-name="uniE650" unicode="&#xe650;" 
d="M720 678h-416q-48 0 -88 -23t-63 -63.5t-23 -87.5v-408q0 -72 51 -123t123 -51h416q72 0 123 51t51 123v408q0 72 -51 123t-123 51zM304 606h416q28 0 51.5 -13.5t37 -37t13.5 -51.5v-204h-620v204q0 28 13.5 51.5t37 37t51.5 13.5zM720 -6h-416q-42 0 -72 30t-30 72v173
h620v-173q0 -42 -30 -72t-72 -30zM530 243h-14l-58 -20l2 -27l41 14v-148h-37v-26h96v26h-30v181zM347 347h33l75 194h20v22h-76v-22h27l-56 -154q-1 -4 -2 -7.5t-1 -7.5h-2v4q0 2 -1 3l-2 8l-56 154h23v22h-77v-22h19zM567 368h-24l1 173h23v22h-77v-22h24l-1 -173h-23v-21
h77v21zM674 368h-27l1 66h34q12 0 21 3q4 1 7 2t6 2.5t5 3.5q7 4 12.5 9.5t9.5 12.5q2 4 3.5 8t2 8t1 8.5t0.5 9.5q0 18 -7.5 31.5t-21.5 20.5q-8 5 -19.5 7.5t-29.5 2.5h-78v-22h24l-2 -173h-22v-21h80v21zM648 541h19h7q4 0 7 -0.5t6 -0.5q8 -1 16 -6t12 -14q1 -2 2 -4.5
t1.5 -5t0.5 -5.5v-6q0 -7 -1 -12.5t-3.5 -10.5t-6.5 -9q-11 -12 -34 -12h-26v86z" />
    <glyph glyph-name="uniE651" unicode="&#xe651;" 
d="M720 678h-416q-48 0 -88 -23t-63 -63.5t-23 -87.5v-408q0 -72 51 -123t123 -51h416q72 0 123 51t51 123v408q0 72 -51 123t-123 51zM304 606h416q28 0 51.5 -13.5t37 -37t13.5 -51.5v-204h-620v204q0 28 13.5 51.5t37 37t51.5 13.5zM720 -6h-416q-42 0 -72 30t-30 72v173
h620v-173q0 -42 -30 -72t-72 -30zM550 102q25 21 35.5 39t10.5 39q0 11 -3 21t-9 17.5t-14 13t-18.5 8.5t-21.5 3q-30 0 -48.5 -17.5t-18.5 -43.5q0 -20 9 -32l27 10q-7 12 -7 24q0 5 1.5 10t4.5 9t7.5 7t10.5 5t13 2q18 0 28.5 -10.5t10.5 -26.5q0 -27 -35 -58
q-11 -10 -23.5 -22t-25 -25.5t-22.5 -24.5v-14h137v26h-90l7 7l8 7l6 8l8 6q3 4 6 6.5t6 5.5zM347 347h33l75 194h20v22h-76v-22h27l-56 -154q-1 -4 -2 -7.5t-1 -7.5h-2v4q0 2 -1 3l-2 8l-56 154h23v22h-77v-22h19zM567 368h-24l1 173h23v22h-77v-22h24l-1 -173h-23v-21h77
v21zM674 368h-27l1 66h34q12 0 21 3q4 1 7 2t6 2.5t5 3.5q7 4 12.5 9.5t9.5 12.5q2 4 3.5 8t2 8t1 8.5t0.5 9.5q0 18 -7.5 31.5t-21.5 20.5q-8 5 -19.5 7.5t-29.5 2.5h-78v-22h24l-2 -173h-22v-21h80v21zM648 541h19h7q4 0 7 -0.5t6 -0.5q8 -1 16 -6t12 -14q1 -2 2 -4.5
t1.5 -5t0.5 -5.5v-6q0 -7 -1 -12.5t-3.5 -10.5t-6.5 -9q-11 -12 -34 -12h-26v86z" />
    <glyph glyph-name="uniE652" unicode="&#xe652;" 
d="M720 678h-416q-48 0 -88 -23t-63 -63.5t-23 -87.5v-408q0 -72 51 -123t123 -51h416q72 0 123 51t51 123v408q0 72 -51 123t-123 51zM304 606h416q28 0 51.5 -13.5t37 -37t13.5 -51.5v-204h-620v204q0 28 13.5 51.5t37 37t51.5 13.5zM720 -6h-416q-42 0 -72 30t-30 72v173
h620v-173q0 -42 -30 -72t-72 -30zM561 143q27 15 27 44q0 26 -17 41t-45 15q-15 0 -27 -5.5t-21.5 -15t-16.5 -23.5l23 -14q16 32 42 32q15 0 24.5 -8.5t9.5 -23.5q0 -30 -29 -30h-15v-25h15q34 0 34 -34q0 -11 -5 -20t-14 -13.5t-21 -4.5q-7 0 -13 2t-11.5 5.5t-10.5 9
t-9 13.5l-23 -17q23 -39 66 -39q21 0 36.5 7.5t24.5 22t9 34.5q0 11 -4 20.5t-11 16t-18 10.5zM347 347h33l75 194h20v22h-76v-22h27l-56 -154q-1 -4 -2 -7.5t-1 -7.5h-2v4q0 2 -1 3l-2 8l-56 154h23v22h-77v-22h19zM567 368h-24l1 173h23v22h-77v-22h24l-1 -173h-23v-21h77
v21zM674 368h-27l1 66h34q12 0 21 3q4 1 7 2t6 2.5t5 3.5q7 4 12.5 9.5t9.5 12.5q2 4 3.5 8t2 8t1 8.5t0.5 9.5q0 18 -7.5 31.5t-21.5 20.5q-8 5 -19.5 7.5t-29.5 2.5h-78v-22h24l-2 -173h-22v-21h80v21zM648 541h19h7q4 0 7 -0.5t6 -0.5q8 -1 16 -6t12 -14q1 -2 2 -4.5
t1.5 -5t0.5 -5.5v-6q0 -7 -1 -12.5t-3.5 -10.5t-6.5 -9q-11 -12 -34 -12h-26v86z" />
    <glyph glyph-name="uniE653" unicode="&#xe653;" 
d="M720 678h-416q-48 0 -88 -23t-63 -63.5t-23 -87.5v-408q0 -72 51 -123t123 -51h416q72 0 123 51t51 123v408q0 72 -51 123t-123 51zM304 606h416q28 0 51.5 -13.5t37 -37t13.5 -51.5v-204h-620v204q0 28 13.5 51.5t37 37t51.5 13.5zM720 -6h-416q-42 0 -72 30t-30 72v173
h620v-173q0 -42 -30 -72t-72 -30zM577 243h-14l-103 -147v-14h89v-46h28v46h31v26h-31v135zM549 108h-60l60 85v-85zM347 347h33l75 194h20v22h-76v-22h27l-56 -154q-1 -4 -2 -7.5t-1 -7.5h-2v4q0 2 -1 3l-2 8l-56 154h23v22h-77v-22h19zM567 368h-24l1 173h23v22h-77v-22
h24l-1 -173h-23v-21h77v21zM674 368h-27l1 66h34q12 0 21 3q4 1 7 2t6 2.5t5 3.5q7 4 12.5 9.5t9.5 12.5q2 4 3.5 8t2 8t1 8.5t0.5 9.5q0 18 -7.5 31.5t-21.5 20.5q-8 5 -19.5 7.5t-29.5 2.5h-78v-22h24l-2 -173h-22v-21h80v21zM648 541h19h7q4 0 7 -0.5t6 -0.5q8 -1 16 -6
t12 -14q1 -2 2 -4.5t1.5 -5t0.5 -5.5v-6q0 -7 -1 -12.5t-3.5 -10.5t-6.5 -9q-11 -12 -34 -12h-26v86z" />
    <glyph glyph-name="uniE654" unicode="&#xe654;" 
d="M720 678h-416q-48 0 -88 -23t-63 -63.5t-23 -87.5v-408q0 -72 51 -123t123 -51h416q72 0 123 51t51 123v408q0 72 -51 123t-123 51zM304 606h416q28 0 51.5 -13.5t37 -37t13.5 -51.5v-204h-620v204q0 28 13.5 51.5t37 37t51.5 13.5zM720 -6h-416q-42 0 -72 30t-30 72v173
h620v-173q0 -42 -30 -72t-72 -30zM532 172q-15 0 -28 -7v48h80v25h-108v-109h13q4 4 8 7.5t8.5 5.5t9.5 3t11 1q12 0 21.5 -5t14.5 -15t5 -24q0 -20 -11.5 -32t-31.5 -12q-25 0 -46 31l-22 -18q24 -39 68 -39q32 0 52 19t20 51t-18.5 51t-45.5 19zM347 347h33l75 194h20v22
h-76v-22h27l-56 -154q-1 -4 -2 -7.5t-1 -7.5h-2v4q0 2 -1 3l-2 8l-56 154h23v22h-77v-22h19zM567 368h-24l1 173h23v22h-77v-22h24l-1 -173h-23v-21h77v21zM674 368h-27l1 66h34q12 0 21 3q4 1 7 2t6 2.5t5 3.5q7 4 12.5 9.5t9.5 12.5q2 4 3.5 8t2 8t1 8.5t0.5 9.5
q0 18 -7.5 31.5t-21.5 20.5q-8 5 -19.5 7.5t-29.5 2.5h-78v-22h24l-2 -173h-22v-21h80v21zM648 541h19h7q4 0 7 -0.5t6 -0.5q8 -1 16 -6t12 -14q1 -2 2 -4.5t1.5 -5t0.5 -5.5v-6q0 -7 -1 -12.5t-3.5 -10.5t-6.5 -9q-11 -12 -34 -12h-26v86z" />
    <glyph glyph-name="uniE655" unicode="&#xe655;" 
d="M720 678h-416q-48 0 -88 -23t-63 -63.5t-23 -87.5v-408q0 -72 51 -123t123 -51h416q72 0 123 51t51 123v408q0 72 -51 123t-123 51zM304 606h416q28 0 51.5 -13.5t37 -37t13.5 -51.5v-204h-620v204q0 28 13.5 51.5t37 37t51.5 13.5zM720 -6h-416q-42 0 -72 30t-30 72v173
h620v-173q0 -42 -30 -72t-72 -30zM538 170q-8 0 -15.5 -2t-15.5 -7q19 37 55 68l-26 14q-74 -69 -74 -137q0 -35 19 -54.5t50 -19.5q13 0 23.5 3t19.5 9.5t15.5 15t10 19.5t3.5 24q0 20 -8.5 35t-23.5 23.5t-33 8.5zM532 58q-19 0 -30.5 12t-11.5 31t11.5 31t30.5 12
t30.5 -11.5t11.5 -31.5q0 -10 -3 -18t-8.5 -13.5t-13.5 -8.5t-17 -3zM347 347h33l75 194h20v22h-76v-22h27l-56 -154q-1 -4 -2 -7.5t-1 -7.5h-2v4q0 2 -1 3l-2 8l-56 154h23v22h-77v-22h19zM567 368h-24l1 173h23v22h-77v-22h24l-1 -173h-23v-21h77v21zM674 368h-27l1 66h34
q12 0 21 3q4 1 7 2t6 2.5t5 3.5q7 4 12.5 9.5t9.5 12.5q2 4 3.5 8t2 8t1 8.5t0.5 9.5q0 18 -7.5 31.5t-21.5 20.5q-8 5 -19.5 7.5t-29.5 2.5h-78v-22h24l-2 -173h-22v-21h80v21zM648 541h19h7q4 0 7 -0.5t6 -0.5q8 -1 16 -6t12 -14q1 -2 2 -4.5t1.5 -5t0.5 -5.5v-6
q0 -7 -1 -12.5t-3.5 -10.5t-6.5 -9q-11 -12 -34 -12h-26v86z" />
    <glyph glyph-name="uniE656" unicode="&#xe656;" 
d="M720 678h-416q-48 0 -88 -23t-63 -63.5t-23 -87.5v-408q0 -72 51 -123t123 -51h416q72 0 123 51t51 123v408q0 72 -51 123t-123 51zM304 606h416q28 0 51.5 -13.5t37 -37t13.5 -51.5v-204h-620v204q0 28 13.5 51.5t37 37t51.5 13.5zM720 -6h-416q-42 0 -72 30t-30 72v173
h620v-173q0 -42 -30 -72t-72 -30zM464 213h98l-67 -177h30l68 188v14h-129v-25zM347 347h33l75 194h20v22h-76v-22h27l-56 -154q-1 -4 -2 -7.5t-1 -7.5h-2v4q0 2 -1 3l-2 8l-56 154h23v22h-77v-22h19zM567 368h-24l1 173h23v22h-77v-22h24l-1 -173h-23v-21h77v21zM674 368
h-27l1 66h34q12 0 21 3q4 1 7 2t6 2.5t5 3.5q7 4 12.5 9.5t9.5 12.5q2 4 3.5 8t2 8t1 8.5t0.5 9.5q0 18 -7.5 31.5t-21.5 20.5q-8 5 -19.5 7.5t-29.5 2.5h-78v-22h24l-2 -173h-22v-21h80v21zM648 541h19h7q4 0 7 -0.5t6 -0.5q8 -1 16 -6t12 -14q1 -2 2 -4.5t1.5 -5t0.5 -5.5
v-6q0 -7 -1 -12.5t-3.5 -10.5t-6.5 -9q-11 -12 -34 -12h-26v86z" />
    <glyph glyph-name="uniE657" unicode="&#xe657;" 
d="M720 678h-416q-48 0 -88 -23t-63 -63.5t-23 -87.5v-408q0 -72 51 -123t123 -51h416q72 0 123 51t51 123v408q0 72 -51 123t-123 51zM304 606h416q28 0 51.5 -13.5t37 -37t13.5 -51.5v-204h-620v204q0 28 13.5 51.5t37 37t51.5 13.5zM720 -6h-416q-42 0 -72 30t-30 72v173
h620v-173q0 -42 -30 -72t-72 -30zM557 143q36 17 36 46q0 24 -17.5 39t-45.5 15q-18 0 -32.5 -7t-22.5 -19t-8 -29q0 -29 34 -46q-40 -18 -40 -53q0 -25 20 -41t50 -16q31 0 50.5 15.5t19.5 41.5q0 36 -44 54zM495 189q0 13 9.5 21t25.5 8q8 0 14.5 -2.5t11 -6.5t7 -9.5
t2.5 -12.5q0 -21 -35 -34q-16 5 -25.5 14.5t-9.5 21.5zM531 57q-19 0 -30.5 9t-11.5 24q0 29 41 43q43 -15 43 -43q0 -4 -1 -8t-3 -7.5t-4.5 -6t-6.5 -5t-8 -4t-9 -2t-10 -0.5zM347 347h33l75 194h20v22h-76v-22h27l-56 -154q-1 -4 -2 -7.5t-1 -7.5h-2v4q0 2 -1 3l-2 8
l-56 154h23v22h-77v-22h19zM567 368h-24l1 173h23v22h-77v-22h24l-1 -173h-23v-21h77v21zM674 368h-27l1 66h34q12 0 21 3q4 1 7 2t6 2.5t5 3.5q7 4 12.5 9.5t9.5 12.5q2 4 3.5 8t2 8t1 8.5t0.5 9.5q0 18 -7.5 31.5t-21.5 20.5q-8 5 -19.5 7.5t-29.5 2.5h-78v-22h24l-2 -173
h-22v-21h80v21zM648 541h19h7q4 0 7 -0.5t6 -0.5q8 -1 16 -6t12 -14q1 -2 2 -4.5t1.5 -5t0.5 -5.5v-6q0 -7 -1 -12.5t-3.5 -10.5t-6.5 -9q-11 -12 -34 -12h-26v86z" />
    <glyph glyph-name="uniE658" unicode="&#xe658;" 
d="M720 678h-416q-48 0 -88 -23t-63 -63.5t-23 -87.5v-408q0 -72 51 -123t123 -51h416q72 0 123 51t51 123v408q0 72 -51 123t-123 51zM304 606h416q28 0 51.5 -13.5t37 -37t13.5 -51.5v-204h-620v204q0 28 13.5 51.5t37 37t51.5 13.5zM720 -6h-416q-42 0 -72 30t-30 72v173
h620v-173q0 -42 -30 -72t-72 -30zM532 243q-32 0 -52 -20.5t-20 -51.5q0 -30 18.5 -48t48.5 -18q16 0 31 10q-20 -34 -56 -70l27 -13q35 35 55 70t20 67q0 21 -10 38t-26 26.5t-36 9.5zM532 131q-12 0 -22 5t-15.5 14.5t-5.5 22.5q0 9 3 17t8.5 14t13.5 9.5t18 3.5
q19 0 31 -12.5t12 -31.5q0 -20 -12.5 -31t-30.5 -11zM347 347h33l75 194h20v22h-76v-22h27l-56 -154q-1 -4 -2 -7.5t-1 -7.5h-2v4q0 2 -1 3l-2 8l-56 154h23v22h-77v-22h19zM567 368h-24l1 173h23v22h-77v-22h24l-1 -173h-23v-21h77v21zM674 368h-27l1 66h34q12 0 21 3
q4 1 7 2t6 2.5t5 3.5q7 4 12.5 9.5t9.5 12.5q2 4 3.5 8t2 8t1 8.5t0.5 9.5q0 18 -7.5 31.5t-21.5 20.5q-8 5 -19.5 7.5t-29.5 2.5h-78v-22h24l-2 -173h-22v-21h80v21zM648 541h19h7q4 0 7 -0.5t6 -0.5q8 -1 16 -6t12 -14q1 -2 2 -4.5t1.5 -5t0.5 -5.5v-6q0 -7 -1 -12.5
t-3.5 -10.5t-6.5 -9q-11 -12 -34 -12h-26v86z" />
    <glyph glyph-name="uniE659" unicode="&#xe659;" 
d="M720 678h-416q-48 0 -88 -23t-63 -63.5t-23 -87.5v-408q0 -72 51 -123t123 -51h416q72 0 123 51t51 123v408q0 72 -51 123t-123 51zM304 606h416q28 0 51.5 -13.5t37 -37t13.5 -51.5v-204h-620v204q0 28 13.5 51.5t37 37t51.5 13.5zM720 -6h-416q-42 0 -72 30t-30 72v173
h620v-173q0 -42 -30 -72t-72 -30zM433 243h-14l-58 -20l2 -27l42 14v-148h-37v-26h95v26h-30v181zM559 243q-33 0 -53 -29t-20 -77t19.5 -76.5t53 -28.5t53.5 28.5t20 76.5q0 47 -20.5 76.5t-52.5 29.5zM559 58q-21 0 -32.5 20.5t-11.5 58.5t11.5 59t32.5 21t32.5 -21
t11.5 -59q0 -79 -44 -79zM347 347h33l75 194h20v22h-76v-22h27l-56 -154q-1 -4 -2 -7.5t-1 -7.5h-2v4q0 2 -1 3l-2 8l-56 154h23v22h-77v-22h19zM567 368h-24l1 173h23v22h-77v-22h24l-1 -173h-23v-21h77v21zM674 368h-27l1 66h34q12 0 21 3q4 1 7 2t6 2.5t5 3.5
q7 4 12.5 9.5t9.5 12.5q2 4 3.5 8t2 8t1 8.5t0.5 9.5q0 18 -7.5 31.5t-21.5 20.5q-8 5 -19.5 7.5t-29.5 2.5h-78v-22h24l-2 -173h-22v-21h80v21zM648 541h19h7q4 0 7 -0.5t6 -0.5q8 -1 16 -6t12 -14q1 -2 2 -4.5t1.5 -5t0.5 -5.5v-6q0 -7 -1 -12.5t-3.5 -10.5t-6.5 -9
q-11 -12 -34 -12h-26v86z" />
    <glyph glyph-name="uniE65A" unicode="&#xe65a;" 
d="M252 309q-2 -1 -6.5 -1.5t-17 -4t-23.5 -7.5t-25 -11.5t-24 -16t-17 -21.5t-7 -28v-317q38 7 93 27q24 9 67 26.5t74 30.5l31 13q203 -92 237 -97q16 -3 80 39t121.5 85t56.5 43v275q-4 1 -9.5 2t-22 1t-31.5 -3t-33 -13t-32 -27v-58h43v-167l-168 -100l-239 102
l-188 -69v197q0 5 4 9.5t9.5 7t11 4.5t9.5 3l4 1zM512 698q-14 0 -27.5 -1t-33 -4t-36.5 -10t-35.5 -16.5t-33 -25t-25.5 -35.5t-16 -48t-3 -62q4 -52 27 -106t52.5 -94t60 -72.5t50 -50t20.5 -17.5q4 3 12 8.5t30.5 23.5t42.5 38t45 51t42.5 62.5t30 72.5t12.5 82t-9 74
t-22.5 54t-34 36t-38.5 22.5t-41.5 12t-37.5 5t-32 0.5zM523 409q-38 0 -64.5 26.5t-26.5 64.5t26.5 64.5t64.5 26.5t64.5 -26.5t26.5 -64.5q0 -25 -12 -46t-33 -33t-46 -12z" />
    <glyph glyph-name="uniE65B" unicode="&#xe65b;" 
d="M913 575q0 -19 -15 -32t-36 -13h-704q-14 0 -26 6t-19 16.5t-7 22.5t7 22.5t19 16.5t26 6h704q11 0 20.5 -3.5t16 -9.5t10.5 -14.5t4 -17.5zM913 300q0 -19 -15 -32t-36 -13h-704q-22 0 -37 13t-15 32t15 32t37 13h704q21 0 36 -13t15 -32zM913 25q0 -18 -15 -31.5
t-36 -13.5h-704q-22 0 -37 13.5t-15 31.5q0 19 15 32t37 13h704q11 0 20.5 -3.5t16 -9.5t10.5 -14.5t4 -17.5z" />
    <glyph glyph-name="uniE65C" unicode="&#xe65c;" 
d="M467 442l-126 167l-149 -167h96v-445h83v445h96zM551 165l126 -168l148 168h-95v444h-84v-444h-95z" />
    <glyph glyph-name="uniE65D" unicode="&#xe65d;" 
d="M823 273v-235q0 -15 -11 -26t-26 -11h-547q-6 0 -11.5 2t-10 5t-8 8t-5.5 10.5t-2 11.5v506q0 15 11 26t26 11h425l40 60h-465q-40 0 -68.5 -28.5t-28.5 -68.5v-506q0 -40 28.5 -68.5t68.5 -28.5h547q40 0 68.5 28.5t28.5 68.5v290zM797 603l-336 -325l-53 -159l187 56
l320 312zM447 154l47 107l81 -62z" />
    <glyph glyph-name="uniE65E" unicode="&#xe65e;" 
d="M521 -36l-19 18q-12 12 -31 31.5t-62 69t-76.5 95.5t-61.5 102t-31 98q-3 56 17 110.5t60 97.5q86 91 204 83q38 3 75 -6t69.5 -28t59.5 -49q40 -43 60.5 -97.5t16.5 -110.5q-2 -42 -30.5 -98t-62 -102t-76.5 -95.5t-61.5 -69t-31.5 -31.5zM504 616q-85 0 -147 -67
q-69 -73 -63 -168q3 -44 46 -114.5t88.5 -124.5t92.5 -102q47 48 92.5 102t89 124.5t45.5 114.5q6 95 -62.5 168.5t-162.5 65.5h-2h-2q-8 1 -15 1zM529 491q-9 0 -18.5 -1.5t-18 -5.5t-16.5 -9t-14 -11.5t-11.5 -14t-9 -16t-5.5 -18t-2 -19.5q0 -39 28 -67t67.5 -28t67.5 28
t28 67q0 11 -2.5 22t-7.5 20t-11.5 17.5t-14.5 15t-17.5 11t-20.5 7t-22 2.5z" />
    <glyph glyph-name="uniE65F" unicode="&#xe65f;" 
d="M881 86l-158 101q-7 4 -15 3t-13 -6l-50 -46q-12 -12 -29 -11q-3 0 -7.5 1t-21 7.5t-35 17.5t-47.5 35.5t-59.5 57.5t-53 63.5t-32 50.5t-15 35.5t-6.5 22.5v7q1 17 13 29l43 39q12 12 6 28l-84 172q-1 4 -4.5 6t-7 1.5t-7.5 -3.5l-115 -107q-13 -11 -16 -28
q-1 -7 -1.5 -19t6.5 -52.5t24 -84t59 -109.5t103 -132q169 -182 329 -215q33 -6 52 -5q17 2 30 14l115 106q3 4 4 7.5t-0.5 7t-6.5 6.5z" />
    <glyph glyph-name="uniE660" unicode="&#xe660;" 
d="M528 171v117q20 8 32.5 26t12.5 40q0 15 -5.5 28t-15 22.5t-22.5 15t-28 5.5q-19 0 -35.5 -9.5t-26 -26t-9.5 -35.5q0 -11 3.5 -21.5t9.5 -19t14.5 -15t18.5 -10.5v-239h51v61v-24h65v46h-31v16h31v46h-65v-23zM502 376q9 0 15.5 -6.5t6.5 -15.5q0 -6 -3 -11t-8 -7.5
t-11 -2.5q-4 0 -8 1.5t-7 4.5t-4.5 7t-1.5 8q0 9 6 15.5t15 6.5zM810 204q-6 40 -22 77.5t-32.5 62.5t-41 52t-38 38.5t-34.5 29.5l-6 5q-23 19 -33 34l-4 5q-1 3 -1 4t2 5t3 6.5t4 7t4.5 6.5t3.5 6q6 9 9.5 14.5t8.5 15.5t6 17.5t0 17t-5 18.5q-16 30 -52 30q-39 0 -78 -30
q-6 -4 -9.5 -6.5t-10 -6t-11.5 -3.5l-6 3q-34 38 -68 38q-26 0 -37 -22q-3 -6 -3.5 -14t1 -14.5t6.5 -16.5t9 -16t11 -18q12 -18 16 -26q1 -5 2.5 -9t-8 -16.5t-29.5 -29.5l-7 -5q-21 -18 -34 -29.5t-38 -38.5t-41 -52t-32 -62.5t-23 -77.5q-17 -107 50 -186
q25 -29 54.5 -46t54.5 -17h300q26 0 55.5 17t53.5 46q67 79 50 186zM651 11h-300q-10 0 -29.5 11t-37.5 32q-50 59 -37 141q6 34 20 66.5t28.5 54.5t36.5 45.5t33.5 34t30.5 25.5l6 6q11 9 18 15t18.5 20t16.5 26t5 29t-9 33q-3 5 -6 12q13 -8 28 -8q10 0 19.5 3t18.5 8
t14 8t12 8q25 19 45 19h2q-2 -6 -15 -27q-9 -13 -13.5 -21t-9.5 -22.5t-3 -28t11 -26.5l4 -5q14 -20 42 -43l7 -6q24 -20 39.5 -35t41.5 -44.5t43 -67t24 -79.5q13 -82 -37 -141q-17 -21 -37 -32t-30 -11z" />
    <glyph glyph-name="uniE661" unicode="&#xe661;" 
d="M506 -53l-19 18q-13 13 -31.5 32t-62 69t-77 95.5t-61.5 102t-30 97.5q-2 22 0.5 45t8.5 44.5t16 42.5t23 40.5t29 36.5q85 91 204 83q57 3 109.5 -18t94.5 -65q40 -43 60 -97.5t17 -111.5q-3 -41 -31 -97.5t-61.5 -102t-76.5 -95.5t-62 -69t-31 -32zM488 599
q-41 0 -79 -17t-68 -49q-68 -73 -63 -169q3 -44 46.5 -114.5t89 -124.5t92.5 -102q33 34 67 73.5t71.5 88.5t62 97t26.5 82q6 96 -63 169q-33 35 -75 52t-87 14l-2 -1l-2 1h-8h-8zM514 259q-33 0 -61 16t-44 44t-16 60q0 50 35.5 85.5t85.5 35.5q33 0 60.5 -16t44 -44
t16.5 -61q0 -50 -35.5 -85t-85.5 -35zM514 446q-28 0 -47.5 -19.5t-19.5 -47.5q0 -9 2.5 -17.5t7 -16t10.5 -13.5t13 -10t16 -6.5t18 -2.5q11 0 21 3t18 9.5t14.5 14.5t9.5 18.5t3 21t-3 21t-9.5 18.5t-14.5 14t-18 9.5t-21 3.5z" />
    <glyph glyph-name="uniE662" unicode="&#xe662;" 
d="M495.5 699q-83.5 0 -128 -52t-41.5 -118q5 -77 159 -411l3 -7q19 38 47.5 96t78 172t51.5 150q4 66 -41 118t-128.5 52zM494 473q-15 0 -29.5 6t-24.5 16.5t-16 24.5t-6 29q0 32 22 54t54 22t54 -22t22 -54q0 -20 -10 -38t-27.5 -28t-38.5 -10zM664 270l-43 -60
q42 -13 66.5 -32t24.5 -41q0 -39 -67.5 -66.5t-163 -27.5t-162.5 27.5t-67 66.5q0 26 34.5 48.5t91.5 34.5l-44 49l-1 3q-91 -23 -146.5 -66t-55.5 -95q0 -49 49 -90t133 -65t183 -24t183 24t132.5 65t48.5 90q0 34 -25 65t-69 55t-102 39z" />
    <glyph glyph-name="uniE663" unicode="&#xe663;" 
d="M878 -18h-62q0 38 -19 79.5t-43.5 72t-55 60t-43.5 40t-20 15.5l-32 24l30 25q65 57 65 143q0 77 -55 132t-132 56q-78 -1 -132.5 -56t-54.5 -132q0 -86 65 -143l30 -25l-32 -24q-7 -5 -20 -15.5t-44 -40t-54.5 -60t-43 -72t-19.5 -79.5h-62q0 37 13 76t32.5 70t45.5 62
t46 50.5t41 36.5q-29 34 -45 76t-16 88q0 103 73 176t176 74h2q51 0 97 -20t79 -53.5t52.5 -80t19.5 -96.5q0 -93 -60 -164q21 -17 41 -36.5t46 -50.5t45 -62t32.5 -70t13.5 -76z" />
    <glyph glyph-name="uniE664" unicode="&#xe664;" 
d="M490 43l392 388h-163l-224 -222l-200 222h-155z" />
    <glyph glyph-name="uniE665" unicode="&#xe665;" 
d="M501 623q-88 0 -162.5 -43t-117.5 -117.5t-43 -162.5t43 -162.5t117.5 -117.5t162.5 -43t162.5 43t118 117.5t43.5 162.5q0 44 -12 86t-32.5 77.5t-50.5 65t-65.5 50.5t-77.5 32.5t-86 11.5zM705 187l-89 -89l-113 113l-113 -113l-89 89l113 113l-113 113l89 89l113 -113
l113 113l89 -89l-113 -113z" />
    <glyph glyph-name="uniE666" unicode="&#xe666;" 
d="M874 184q-14 0 -23.5 -9.5t-9.5 -23.5v-88q0 -1 -0.5 -5t-3.5 -13.5t-8 -18t-15.5 -19t-25 -18.5t-38 -13t-52.5 -5h-416q-11 1 -34.5 20.5t-44 47.5t-20.5 49v452q0 11 5.5 23t17 24t27 21.5t37 15t46.5 5.5h433q10 0 25 -7.5t29.5 -21t24.5 -34.5t10 -45v-188h-346
l130 130q3 3 5 7t3 8t1 8.5t-1 8.5t-3 8t-6 7q-23 23 -46 0l-185 -187q-10 -10 -9.5 -24t10.5 -23l185 -171q9 -9 22 -9h4l4 2q2 0 3.5 0.5t3.5 1.5t3 2l4 2q1 1 2 3q10 10 9.5 23.5t-10.5 22.5l-124 114h374l33 33v221q0 73 -51.5 123.5t-103.5 50.5h-433
q-88 0 -143.5 -47.5t-55.5 -107.5v-452q0 -36 28.5 -80t67.5 -73.5t69 -29.5h416q40 0 73 8t55 21t38.5 29.5t25.5 34.5t13 34.5t4 30.5v88q0 14 -9.5 23.5t-23.5 9.5z" />
    <glyph glyph-name="uniE667" unicode="&#xe667;" 
d="M704 400q0 36 150 168l9 8q-61 -29 -144.5 -20.5t-162.5 51.5q-47 25 -96.5 37.5t-75.5 12.5l-26 -1v-346q22 12 102 4q24 -3 67.5 -12.5t85.5 -19.5t91.5 -20t83.5 -13t62 2l-8 7q-8 6 -21 17.5t-28.5 26t-31 29.5t-28.5 28.5t-21 24.5t-8 16zM236 656h65v-739h-65v739z
" />
    <glyph glyph-name="uniE668" unicode="&#xe668;" 
d="M467 379q0 -5 -2 -9.5t-5.5 -8t-8 -5.5t-9.5 -2q-10 0 -17.5 7.5t-7.5 17.5v231h-59v-231q0 -10 -7 -17.5t-17.5 -7.5t-17.5 7.5t-7 17.5v231h-55l2 -236q0 -2 0.5 -5.5t2 -12.5t5 -17.5t10 -19t15.5 -18t23.5 -13t32.5 -5.5l-2 -354h91v356q18 0 32.5 5t23.5 12.5
t15.5 17t9.5 19t4.5 17.5t1.5 13v5v236h-54v-231zM614 413q0 -20 1.5 -40.5t4.5 -38t6.5 -34.5t7.5 -30.5t7.5 -25t7 -20.5t6.5 -15.5t4 -9.5l2 -3v-267h89v711q-37 0 -73 -32q-62 -60 -63 -195z" />
    <glyph glyph-name="uniE669" unicode="&#xe669;" 
d="M864 391h-253v254h-208v-254h-254v-208h254v-254h208v254h253v208z" />
    <glyph glyph-name="uniE66A" unicode="&#xe66a;" 
d="M768 581h-40v25q0 15 -10 24.5t-24 9.5t-24 -9.5t-10 -24.5v-25h-114v25q0 15 -10 24.5t-24 9.5t-24 -9.5t-10 -24.5v-25h-113v25q0 15 -10 24.5t-24 9.5q-7 0 -13.5 -2.5t-11 -7t-7 -11t-2.5 -13.5v-25h-39q-29 0 -50 -21t-21 -50v-506q0 -29 21 -49.5t50 -20.5h510
q14 0 27.5 5.5t22.5 15t15 22.5t6 27v506q0 14 -6 27.5t-15 23t-22.5 15t-27.5 5.5zM769 10h-512v495h40v-24q0 -14 10 -24t24 -10t24 10t10 24v24h113v-24q0 -14 10 -24t24 -10t24 10t10 24v24h114v-24q0 -7 3 -13t7.5 -10.5t10.5 -7.5t13 -3q6 0 11 2t9.5 5t7.5 7t4.5 9.5
t1.5 10.5v24h41v-495zM655 367q-2 2 -4.5 3t-5.5 1t-5.5 -1t-4.5 -3l-163 -164q-11 -10 -21 0l-59 60q-11 10 -21 0l-37 -37q-10 -10 0 -21l93 -93q11 -10 25 -10h17q15 0 25 10l198 198q4 4 4 10t-4 11z" />
    <glyph glyph-name="uniE66B" unicode="&#xe66b;" 
d="M185 66q0 13 -59 16q-1 26 -6 42.5t-11 16.5q-13 0 -16 -59q-59 -3 -59 -16.5t59 -16.5q3 -59 16.5 -59t16.5 59q10 1 19 2t16.5 2.5t12.5 3.5t8 4t3 5zM1007 615q0 6 -16.5 10.5t-42.5 6.5q-3 59 -16.5 59t-16.5 -59q-26 -2 -42.5 -6.5t-16.5 -10.5q0 -14 59 -17
q3 -59 16.5 -59t16.5 59q59 3 59 17zM651 488q29 -8 27 -42q-1 -4 2 -5l3 1q53 25 96 20t71 -16.5t28 -14.5q8 59 -31 93t-127 35h-32q-24 0 -33 0.5t-28 1t-28 2.5t-22 4.5t-21.5 6.5t-14.5 10q-5 5 -5 -2q0 -10 3.5 -23t11.5 -26q6 -9 12.5 -15.5t13.5 -10.5t14 -7
t15 -4.5t14.5 -2.5t15 -2t15.5 -3zM479 62q6 66 -68 118l10 -4q25 -11 42 -25t30 -38q20 2 46 6.5t68.5 15.5t82.5 25t82 37t72 50.5t48 67t15 84.5q-1 19 -4 33.5t-5 19.5l-3 5q2 -22 -2.5 -40.5t-14 -32t-23 -25t-28.5 -19t-31 -13.5t-29.5 -9t-25 -5t-17 -2.5t-6.5 -0.5
q0 13 8 30q1 3 0 4t-4 0q-95 -29 -175 9q-7 4 -13 -1q-17 -12 -29.5 -27t-18.5 -27.5t-9 -23.5t-4 -17v-6q-50 -11 -93 -33.5t-71 -48.5t-46 -50.5t-27 -46.5q-1 -3 0 -5t4 -2q6 -1 11 -2t13.5 -2.5t15.5 -4.5q36 -11 46 -26q-37 -4 -71 -13q-6 -1 -1 -6q13 -10 29 -18.5
t34.5 -14.5t37 -8t38 1t35.5 12q9 4 16.5 10.5t13.5 14t10.5 16.5t7.5 18.5t3 19.5zM324.5 83.5q-9.5 -0.5 -16.5 6t-7 15.5q0 7 2.5 12t7.5 8.5t11 3.5q10 1 17 -5.5t7.5 -16t-6 -16.5t-16 -7.5zM499 92q3 -16 2 -32q-2 -29 -17 -53t-39 -39q65 0 128 13q18 -15 52 -24h4
q2 0 4 1t4 3q23 24 49 37q27 13 55 18q7 1 1 5l-25 14q68 38 117 93q66 76 74 199q-13 -60 -67.5 -107.5t-127 -73t-124 -37.5t-90.5 -17z" />
    <glyph glyph-name="uniE66C" unicode="&#xe66c;" 
d="M165 501q0 13 -57 16q-1 16 -3.5 29t-6 20.5t-7.5 7.5q-13 0 -16 -57q-57 -3 -57 -16t57 -16q1 -17 3.5 -30t6 -20.5t6.5 -7.5q14 0 17 58q57 3 57 16zM996 683q-2 1 -7 -1t-12 -8t-14 -14q-31 24 -37 17t22 -34q-23 -31 -16 -37q1 -1 4.5 0t8 4t10 8t10.5 11
q31 -24 37 -17t-22 34q23 31 16 37zM326 488q5 -42 31 -70t72.5 -34t77.5 -2q-1 1 -2 2.5t-1.5 3t-1.5 2.5q-23 33 -43 57q-21 27 -47 54q-25 24 -54 48q6 -3 11.5 -5.5t10.5 -5.5t10 -6.5t10.5 -7t10 -7t9.5 -7.5q26 -22 51 -53q12 -14 22.5 -29.5t18.5 -31.5q3 -4 7 -12
q-7 -20 -10 -42q-21 -35 -34 -68q-3 -10 6 -15q1 -1 2 -1h2q5 0 8 3q10 32 28 65q17 31 41 61q25 31 52 53q30 25 61 39q-14 -12 -27.5 -24t-25.5 -24q-26 -27 -48 -53q-20 -24 -43 -58q0 -1 -2 -4t-3 -4q32 -3 78 2q77 9 99 80l4 24q3 19 7 35t8.5 25t9 16t6.5 9l3 3
q-22 1 -40.5 0.5t-35.5 -2.5q-2 0 -5 -1q-95 -15 -132 -97q-1 1 -2 3t-1 3q-23 140 -152 161l-5 1q-34 5 -76 2q3 -3 7.5 -8t14 -28t12.5 -52zM749 101q80 78 81 174q1 3 1 6q0 11 -8.5 21.5t-24.5 20t-38 17.5t-50 14q-6 -9 -12 -17q21 -5 38 -11.5t29.5 -14t19 -15.5
t6.5 -17q0 -31 -71.5 -52.5t-172.5 -21.5t-172.5 21.5t-71.5 52.5q0 26 52 45.5t132 26.5q1 4 1.5 8.5t1.5 9.5q-98 -7 -162.5 -31.5t-64.5 -56.5v6q-2 -103 81 -186q-58 -15 -91 -36t-33 -45q0 -43 96 -73t231.5 -30t231 30t95.5 73q0 24 -33.5 45t-91.5 36zM286 232
q19 -18 50 -30.5t61 -16.5q0 -3 1 -8.5t5.5 -22.5t12.5 -33.5t23.5 -37.5t36.5 -37q-55 20 -97 54.5t-63 67t-30 64.5zM547 -60q-112 0 -191 25t-79 60q0 36 82 61q28 -24 64 -46v-3q0 -1 -0.5 -5t0 -5.5t1 -4.5t2 -5t4.5 -4.5t7.5 -5t10.5 -5.5q32 -13 96 -15h3h2v0
q65 2 97 15q7 3 12 6.5t7.5 5t4 6l1.5 4.5v7v6v3q35 22 63 46q83 -25 83 -61q0 -23 -36 -43t-98 -31t-136 -11z" />
    <glyph glyph-name="uniE66D" unicode="&#xe66d;" 
d="M904 623q1 3 1.5 6t0.5 6q0 2 -0.5 4t-0.5 5l23 22q7 6 6.5 15t-6.5 16q-3 3 -7.5 5t-8.5 2.5t-8 -1t-7 -4.5l-24 -22q-2 1 -3.5 1t-3.5 0.5t-4 0.5h-4q-1 0 -2.5 -0.5t-3.5 -0.5l-22 23q-2 4 -6 5.5t-8.5 1.5t-8.5 -2t-8 -5q-6 -7 -7 -16t5 -15l22 -24q-1 -2 -1.5 -5
t-0.5 -6q0 -5 1 -9l-23 -22q-4 -4 -5.5 -9.5t0 -11.5t5.5 -10q7 -7 16 -8t15 5l24 22q6 -2 12 -2q2 0 4 0.5t5 0.5l22 -23q5 -7 14.5 -6.5t16.5 7t7.5 15.5t-5.5 15zM862 616q-19 0 -19 19q0 5 2.5 9t7 6.5t9.5 2.5q7 0 12.5 -5.5t5.5 -12.5q0 -16 -15 -18q-2 -1 -3 -1z
M168 538h-24q-4 6 -11 10v24q0 6 -4 10t-10 4q-4 0 -7.5 -2t-5 -5t-1.5 -7v-24q-7 -4 -11 -10h-24q-6 0 -10 -4.5t-4 -10.5q0 -4 2 -7t5 -5t7 -2h24q4 -7 11 -11v-24q0 -3 1.5 -6.5t5 -5t7.5 -1.5q6 0 10 4t4 9v24q4 2 6.5 5t4.5 6h24q6 0 10 4t4 10q0 3 -1 5l-2 4
q-1 2 -3 3l-4 2q-2 1 -4 1zM391 514q0 4 -2.5 6t-5.5 2q-17 -3 -32 -11.5t-26 -21.5q-2 -3 -1.5 -6t3.5 -5l57 -33q7 -4 7 4v65zM637 553q1 0 2 -1l54 -43l16 20l-53 43q-6 5 -13 6.5t-14 -0.5q-13 -4 -18 -19l-40 -127h-165q-3 0 -5 -2.5t-1 -5.5q6 -26 5 -59v-18v-2l-1 -7
v-2v-1q-1 -6 -1 -10q-1 -5 -2 -11h-1h-1q-46 0 -79 33t-33 79.5t33 79.5t79 33q22 0 42.5 -8.5t35.5 -22.5t24 -34t10 -42h25q-2 55 -41.5 93.5t-95.5 38.5q-57 0 -97 -40t-40 -97q0 -37 17.5 -68.5t48.5 -50t68 -19.5q-1 -4 -6.5 -28.5t-7.5 -33t-5 -30t-3.5 -34t1 -30
t6.5 -32.5q21 -72 95 -90q2 -2 4 -3q22 -17 22 -56q0 -31 -3 -38t-19 -13q-4 -1 -24 -4.5t-28.5 -10t-8.5 -19.5h220q0 7 -3 12.5t-7.5 8t-11.5 5t-13 3.5t-14 2l-12 3q-12 4 -16 8.5t-5 12t-1 30.5q0 39 22 56q2 1 4 3q74 18 95 90q6 21 7 45.5t-2.5 48.5t-8 45t-10 45.5
t-8.5 39.5q0 5 -1 10v3q0 3 -1 7v1v1v9v9q-1 19 1 34t4 25q1 3 -1 5.5t-5 2.5h-54l38 119q0 2 1 2zM550 365h-90q0 -7 -1 -16q-1 -15 -3 -30.5t-5 -30.5t-6.5 -29t-7.5 -29q-9 -32 -13 -57q-5 -32 -2 -57q4 -30 22 -50q10 -12 21 -20q14 -9 27 -13q-28 3 -54 27
q-12 9 -19.5 23.5t-11.5 30.5q-9 45 7 121q16 72 17 116q1 9 1 14q0 21 -2 40h133zM628 405q-2 -19 -2 -40h-48l12 40h38zM375 431l-56 32q-8 5 -11 -3q-5 -16 -5 -33q0 -6 0.5 -12t2 -11t2.5 -11q3 -7 11 -3l56 32q7 5 0 9zM383 331q3 0 5.5 2t2.5 6v65q0 2 -1 3.5
t-2.5 1.5t-3.5 -1l-57 -33q-7 -4 -2 -10q23 -27 58 -34zM490 460q-3 8 -11 3l-54 -31h71q-1 7 -2.5 14t-3.5 14zM473 489q-22 27 -57 33q-7 -1 -8 -8v-65q0 -8 7 -4l56 33q8 4 2 11z" />
    <glyph glyph-name="uniE66E" unicode="&#xe66e;" 
d="M206 568h-17q-3 5 -7 8v16q0 3 -1.5 5t-4 3.5t-4.5 1.5q-10 0 -10 -10v-16q-2 -2 -4 -3.5t-3 -4.5h-17q-10 0 -10 -9.5t10 -9.5h17q2 -5 7 -8v-16q0 -2 0.5 -4t2 -3t3.5 -2t4 -1q10 0 10 10v16q4 3 7 8h17q9 0 9 9q0 5 -3 7.5t-6 2.5zM809 677l-12 -21q-8 0 -15 -4
l-20 13q-12 7 -19.5 -5t4.5 -20l21 -12q-1 -8 3 -15l-12 -20q-8 -12 4.5 -19.5t19.5 4.5l13 20q3 0 7 1t7 3l21 -13q11 -7 18.5 5.5t-3.5 19.5l-21 13q0 7 -3 14l12 21q7 11 -5 18.5t-20 -3.5zM722 441l-25 -1q-10 -76 -60 -126q-7 -1 -15 1q-79 86 -188 133
q-102 44 -221 26q-6 -1 -8 -5t1 -9q45 -80 154.5 -123t249.5 -32l13 -3q-20 -18 -45.5 -30.5t-39 -16.5t-24.5 -6l-1 1q-21 14 -58 0q-9 -3 -16.5 -6.5t-13.5 -7.5q-26 15 -56.5 13.5t-61.5 -20.5t-53 -51q-35 -49 -32.5 -103t40 -80.5t89 -10t86.5 65.5q32 47 32 98.5
t-33 79.5q3 2 6.5 3.5t7.5 3.5t9 3q25 9 43 3q-7 -18 -5 -34q-10 -1 -19 -4q9 -22 10 -49q3 -60 -36 -115q-24 -35 -60 -56q22 -50 68 -62q44 -10 86 23.5t56.5 92.5t-7.5 108t-66 60q-9 2 -19 3q-2 13 4 28q6 1 17 4t32.5 10.5t46.5 22.5t45 34q7 6 12.5 12.5t11.5 13.5
q-32 -85 -37 -171q-6 -111 53 -216q3 -5 7.5 -5.5t8.5 3.5q60 72 61 191t-63 253q10 26 13 53zM477 343q-39 11 -85 28q-47 18 -83 36q-50 25 -77 46q25 -14 81 -37q23 -9 43 -17t40 -15.5t40.5 -15.5t43.5 -15q16 -6 28.5 -10t27.5 -9t29 -9q-37 4 -88 18zM365 189l-1 1
h-1.5t-4 0.5t-5.5 0t-7 -1.5t-8.5 -2.5t-9.5 -4t-11.5 -6.5t-13.5 -9q-18 -14 -33 -32t-20 -28l-6 -11q17 56 53 94t92 37zM703 81q1 -7 2 -37t1 -46q-1 6 -2.5 12t-2.5 11.5t-1.5 11.5t-1.5 12l-2 12q-1 6 -1.5 11.5t-1.5 11.5q-4 40 -4 84q0 22 1.5 42.5t3.5 40.5
q4 36 14 83q0 -17 -2 -47.5t-2 -35.5q-2 -48 -2 -83q0 -30 1 -83z" />
    <glyph glyph-name="uniE66F" unicode="&#xe66f;" 
d="M655 453q0 4 -1.5 6.5t-3.5 4.5t-4.5 3t-5.5 1q-4 0 -7.5 -2t-5.5 -5t-2 -8q0 -34 7 -49.5t22 -26.5q5 -4 8 -7t6.5 -10.5t5 -22t1.5 -35.5q0 -7 4.5 -11t10.5 -4q4 0 7.5 2t5.5 5.5t2 7.5q0 47 -8 67t-25 32q-5 4 -7 6t-5 7.5t-4 15t-1 23.5zM561 455q5 -4 7.5 -7
t6.5 -11t5.5 -22t1.5 -36q0 -6 4.5 -10.5t10.5 -4.5q2 0 4.5 1t4.5 2.5t3 3t2 4t1 4.5q0 34 -5 54.5t-11.5 29t-17.5 16.5q-4 3 -6.5 5.5t-5 8t-4 15t-1.5 23.5q0 7 -4 11t-11 4q-13 -1 -15 -15q0 -24 4.5 -39.5t10 -22.5t15.5 -14zM510 377q7 -5 10.5 -9.5t7 -21t3.5 -44.5
q0 -7 4.5 -11t10.5 -4t10.5 4t4.5 11q0 25 -2.5 42.5t-7.5 28.5t-10 16.5t-14 11.5q-6 5 -8.5 8t-5.5 14.5t-3 29.5q0 5 -2 8t-5 5t-7.5 2t-7.5 -2t-5 -5t-2 -8q0 -34 7 -49.5t22 -26.5zM466 33h20l2 -3l1 -3l12 -23q2 -3 4.5 -6t6 -5.5t7.5 -3.5t9 -1h168q19 0 27 16l12 23
l1 3l2 3h20q19 0 34 13q46 38 69 85.5t12 80.5q-1 3 -8.5 7t-13.5 4h-479q-5 0 -12.5 -4t-9.5 -7q-7 -22 1 -51t29 -59.5t51 -55.5q16 -13 35 -13zM312 281q9 19 9.5 49t-6 57t-21 46.5t-33.5 19.5q-25 0 -42 -33t-18 -71t9 -68q13 -29 37 -38q5 -143 -24 -194q-2 -3 1 -18
t9 -25q30 -55 61 -4q4 7 7 16.5t3.5 16.5t-1.5 10q-29 55 -24 200q22 10 33 36zM943 482q0 3 0.5 5.5t0.5 5.5q0 5 -1 9l24 22q6 6 6 15.5t-6.5 16t-15.5 7.5t-16 -5l-23 -22q-6 2 -12 2q-5 0 -9 -1l-22 23q-6 7 -15 6.5t-16 -7t-8 -15.5t5 -15l22 -24q0 -3 -0.5 -5.5
t-0.5 -6.5v-3v-2q0 -2 1 -4l-24 -22q-3 -2 -4.5 -6t-1.5 -8.5t1.5 -8.5t5.5 -8t9.5 -6t11 -1t10.5 5l23 22q6 -2 12 -2q2 0 4.5 0.5t4.5 0.5l22 -23q6 -7 15 -6.5t16 7t7.5 15.5t-4.5 15zM900 475q-5 0 -9 2.5t-6.5 7t-2.5 8.5q0 8 5.5 13.5t12.5 5.5q2 0 4 -0.5t4 -1.5
l4 -2l2 -4q2 -1 2.5 -2.5t1 -3.5t0.5 -5q0 -7 -5 -12.5t-13 -5.5zM167 361h-24q-4 6 -10 10v24q0 6 -4.5 10t-10.5 4t-10 -4t-4 -10v-24q-7 -4 -11 -10h-24q-5 0 -9.5 -4.5t-4.5 -10.5t4.5 -10t9.5 -4h24q2 -4 5 -6.5t6 -4.5v-24q0 -3 1 -5.5t3 -4t4.5 -3t5.5 -1.5
q6 0 10.5 4t4.5 10v24q6 4 10 11h24q4 0 7 2t5 5t2 7t-2 7.5t-5 5.5t-7 2z" />
    <glyph glyph-name="uniE670" unicode="&#xe670;" 
d="M505 240q10 11 15.5 25t6.5 27t-2 24q-2 10 0.5 19t6.5 14l4 4l98 98q2 -1 4.5 -0.5t3.5 1.5l10 10q4 4 1 8l15 14q4 5 -1 10l-41 41q-5 5 -10 0q-2 -2 -5 -5.5t-9 -8.5q-4 3 -8 -1l-10 -10q-4 -3 -1 -8l-98 -98q-2 -2 -5 -4.5t-12.5 -5.5t-19.5 -1q-17 5 -38.5 0
t-37.5 -20q0 -1 -1 -2q-170 -171 -260 -261q-11 -11 6.5 -40t36.5 -48t48 -36.5t40 -6.5q110 110 261 260h1zM414 200l-48 -48l-48 -48q-21 -21 -37.5 -37t-19.5 -19q-4 -5 -16.5 0t-23 13t-17.5 15q-12 13 -23.5 31.5t-4.5 25.5q3 3 13.5 14t31.5 31.5t44 44.5q10 10 23 7
l122 -19q4 0 5.5 -4t-1.5 -7zM710 89q44 23 62 60q21 39 -5 148q-2 9 -9.5 15t-17.5 6h-93q-10 0 -17.5 -6t-9.5 -15q-26 -109 -6 -148q11 -21 28.5 -36t34.5 -24q2 -2 6 -3v-63q-3 -2 -12 -12t-22 -16t-36 -7q-2 0 -3 -1.5t-1 -2.5q0 -5 4 -5h80h81q4 0 4 5q-1 3 -4 4
q-23 1 -36 7t-22 16t-12 12v63zM643 291q0 4 4 4h93q3 -2 4 -4q5 -19 8 -37l-4 2q-47 14 -95 3q-13 -63 0 -85q4 -8 11 -15q2 -2 2 -5.5t-3 -6.5q-1 -1 -2.5 -1.5t-3.5 -0.5l-6 3q-4 4 -7 8t-6 9q-5 8 -7 20t-1 26q0 19 4 43q2 11 5 22q2 8 4 15zM870 607l-13 -21
q-8 1 -14 -3l-21 12q-5 3 -10.5 1.5t-8.5 -6.5q-8 -12 4 -19l21 -13q-1 -7 3 -14l-12 -21q-6 -11 5 -19q12 -7 19 4l13 21q8 0 14 3l21 -12q3 -2 6.5 -2t7 2t5.5 5t2 7t-1.5 7.5t-4.5 4.5l-21 13q0 8 -3 14l12 21q7 12 -5 19.5t-19 -4.5zM283 501h-16q-3 5 -8 7v17
q0 9 -10 9t-10 -9v-17q-4 -2 -7 -7h-16q-10 0 -10 -10q0 -4 3 -7t7 -3h16q3 -4 7 -7v-17q0 -4 3 -6.5t7 -2.5q10 0 10 9v17q5 3 8 7h16q10 0 10 10t-10 10z" />
    <glyph glyph-name="uniE671" unicode="&#xe671;" 
d="M939 576q2 6 2 12q0 5 -1 9l24 22q6 6 6 15t-6.5 16t-15.5 8t-16 -5l-23 -22q-6 1 -12 1l-9 -1l-22 24q-6 6 -15 6t-16 -6.5t-8 -15.5t5 -15l22 -24q0 -2 -0.5 -4t-0.5 -4v-4v-9l-23 -22q-4 -4 -5.5 -9.5t0 -11t5.5 -10.5q7 -7 16 -7.5t15 5.5l24 22q2 -1 4 -1.5t4 -0.5
h4h5q2 0 4 1l22 -24q6 -6 15 -6t16 6.5t7.5 15.5t-5.5 16zM897 570q-8 0 -13 5.5t-5 12.5q0 5 2.5 9t6.5 6.5t9 2.5t9 -2.5t6.5 -6.5t2.5 -9q0 -3 -1 -5.5t-2.5 -5t-4 -4t-5 -2.5t-5.5 -1zM164 455h-24q-4 7 -11 11v24q0 4 -1.5 7t-5 5t-7.5 2q-6 0 -10 -4t-4 -10v-24
q-7 -4 -11 -11h-24q-6 0 -10 -4t-4 -10t4 -10.5t10 -4.5h24q4 -6 11 -10v-24q0 -3 1 -5.5t3 -4.5t4.5 -3t5.5 -1q6 0 10 4t4 10v24q4 2 6.5 4.5t4.5 5.5h24q3 0 5.5 1.5t4.5 3.5t3 4.5t1 5.5q0 6 -4 10t-10 4zM698 14q-6 11 -19 11h-77v-2q0 -10 -5 -18.5t-13.5 -13.5
t-18.5 -5h-65q-15 0 -26 11t-11 26v2h-77q-12 0 -18 -11l-43 -71q-7 -10 5 -10h405q4 0 6 3.5t0 6.5zM488 37v-12v-2q0 -5 3.5 -8.5t8.5 -3.5h65q5 0 8.5 3.5t3.5 8.5v2v12v13v17q7 2 13 4l12 6q31 17 51 47t24 66h-1q-48 12 -81 17t-62.5 5t-62 -5t-79.5 -17h-1h-1v0
q1 -12 4 -23.5t8 -22t11.5 -20.5t14.5 -18.5t17 -15.5t19 -13l4 -2l4 -2l4 -2q6 -2 13 -4v-17v-13zM604 535q1 15 -4 29t-14.5 24.5t-23 17t-28.5 7.5q-20 1 -37.5 -8t-28.5 -25.5t-12 -36.5q-15 10 -32 13t-33 -0.5t-30.5 -13t-24.5 -24.5q-8 -13 -11.5 -27.5t-2 -28.5
t7 -27t15.5 -24q4 -3 7.5 -6t7.5 -6v-1h1l-2 -1q-6 -3 -10 -8t-5 -11t1 -12l1 -3q3 -6 8 -9q10 -8 23 -4h2h20q12 -29 6 -61.5t-29 -55.5q-3 -3 -2.5 -5t4.5 -2q1 0 3 0.5t4.5 1t4.5 1.5q86 21 143 21q9 0 18 -0.5t18.5 -1.5t19.5 -2t20 -3t20.5 -4t22 -4.5t23.5 -5.5h2
q2 -1 3 -1t2.5 -0.5t2.5 -0.5q2 -1 3 -1q8 0 1 7q-23 23 -29 55.5t6 61.5h21h11q5 -2 10 -2q3 0 6.5 1t7 2.5t6.5 3.5t5 4.5t4 6t3 6.5q4 14 -2.5 26t-19.5 17q24 23 25 57t-22.5 59t-57.5 26t-59 -22zM482 288q-2 -9 -12 -9q-2 0 -3.5 0.5t-2.5 2t-1.5 3t0.5 3.5q6 23 5 46
q0 9 -1 16q-1 10 -4 19t7 9q4 0 8 -2.5t4 -6.5q2 -10 3 -19q1 -4 1 -9v-17q0 -9 -1 -18t-3 -18zM533 279q-10 0 -10 9q1 30 1 61v1q-1 5 -1 10v9q0 9 10 9t9 -9v-19v-1q-1 -31 0 -61q1 -9 -9 -9zM597 334q-1 -23 5 -46q1 -8 -7 -9q-4 0 -7.5 2.5t-4.5 6.5q-3 13 -3.5 26.5
t-0.5 26.5q1 3 1 5v4q1 5 1.5 9.5t1.5 9.5q2 9 12 9t7 -9q-2 -9 -4 -19q0 -4 -0.5 -8t-0.5 -8z" />
    <glyph glyph-name="uniE672" unicode="&#xe672;" 
d="M830 632l-12 -20q-4 0 -7.5 -1t-7.5 -3l-20 13q-12 7 -19 -6q-2 -2 -2.5 -4t0.5 -4v-4q1 -2 2.5 -4t3.5 -3l20 -12q0 -8 4 -15l-13 -21q-2 -4 -0.5 -10t6.5 -9t10.5 -1.5t8.5 6.5l13 20q7 0 14 4l21 -13q4 -3 10 -1.5t9 6.5t1.5 11t-5.5 9l-21 12q0 8 -3 15l12 20
q7 12 -5 19.5t-20 -4.5zM244 526h-17l-7 8v16q0 4 -3 7t-7 3q-10 0 -10 -10v-16q-4 -3 -7 -8h-17q-2 0 -3.5 -0.5t-3 -2t-2 -3.5t-0.5 -4q0 -10 9 -10h17q1 -2 3 -3.5t4 -3.5v-16q0 -10 10 -10t10 10v16q5 3 7 7h17q9 0 9 10q-1 9 -9 10zM211 235q4 8 20 29q5 7 9 18.5
t4 24.5q0 26 -10 112q-1 12 -4 13q-2 -2 -3 -9l-4 -105q0 -3 -3 -3h-1q-3 0 -3 3l-4 105q-1 8 -3 9q-2 0 -3 -2.5t-1 -6.5l-4 -105l-3 -3h-1l-3 3l-4 105q0 9 -4 9q-1 0 -2 -2.5t-1 -6.5l-4 -105q-1 -3 -4 -3l-3 3l-4 105q-1 7 -3 9q-1 0 -2 -1t-1.5 -3.5t-0.5 -4t-1 -4.5
v-8l-2 -10q0 -5 -1 -11.5t-1.5 -12.5t-1.5 -13v-14l-2 -14q0 -7 -0.5 -14.5t-0.5 -14.5q0 -13 4 -24.5t9 -18.5q16 -21 20 -29q0 -2 1 -6t1 -11v-8v-7v-27q0 -12 -1 -31q-1 -30 -17 -128q-4 -25 4.5 -40t24.5 -16q17 1 25 16t5 40q-16 98 -17 128q-1 18 -1 31v27t2 32z
M840 153v3v2q0 2 0.5 4t1.5 3q0 1 1 2v1q1 1 2 3l2 4q1 2 1.5 4t0.5 4q5 51 3 104q-2 34 -2 87v8v16q0 8 0.5 14t0.5 12v8v7q0 3 -1 5v4q-1 2 -2 3t-3 1q-2 1 -6.5 1t-9.5 -4t-10 -9.5t-9.5 -16t-8.5 -23t-6.5 -31t-2.5 -40.5q-2 -104 3 -151q0 -3 3 -4l11 -7q6 -4 6 -9
q-1 -1 -1 -3v-2q-1 -32 -4.5 -65t-9.5 -68q-4 -27 3 -42.5t24 -16.5q17 1 24.5 16.5t3.5 42.5q-12 74 -15 133zM509 454q-100 0 -171 -71t-71 -171t71 -171t171 -71t171 71t71 171t-71 171t-171 71zM312 297q6 31 27 58q4 7 9.5 13t11.5 11.5t12.5 10.5t13.5 10q28 18 59 25
q16 4 32 4.5t32 -2.5q-11 -2 -20.5 -4.5t-19.5 -5.5t-19 -7q-15 -5 -28 -12t-25.5 -15t-24 -17.5t-21.5 -20.5q-7 -7 -14 -15t-13 -16t-12 -17zM509 57q-64 0 -109 45.5t-45 109.5t45 109t109 45q31 0 60 -12t49.5 -33t32.5 -49.5t12 -59.5q0 -42 -20.5 -77.5t-56 -56.5
t-77.5 -21z" />
    <glyph glyph-name="uniE673" unicode="&#xe673;" 
d="M891 445q0 10 -6 13.5t-15 -1.5l-69 -38q-1 7 -2 11t-1.5 7t0 5t1.5 4.5t1.5 4t2 4t2 3t3.5 2.5l2 2q2 2 3.5 4.5t2.5 5t1.5 5t0.5 5.5v10h-507v-10q0 -12 8 -20l2 -2l3 -2l2 -2q1 -2 1.5 -3.5t1.5 -3.5t1.5 -4t0.5 -4v-5q0 -3 -1 -6q-1 -2 -1.5 -5t-1.5 -6l-69 38
q-8 5 -14.5 1.5t-6.5 -13.5v-28q0 -10 6.5 -19t15.5 -13l59 -20q-3 -21 -5.5 -41.5t-4.5 -38.5q-8 -100 38 -139q20 -18 49 -22.5t94 -4.5h62h26h63q64 0 93 4.5t50 22.5q45 39 37 139q-1 18 -3.5 38.5t-5.5 41.5l58 20q6 2 11.5 7.5t8.5 12t3 12.5zM361 164q-36 31 -29 119
q3 36 9.5 78.5t11.5 62.5q7 25 -7 44h52q3 -4 5.5 -8t3 -10t1 -9.5t-0.5 -12t-1.5 -12t-2.5 -15.5t-3 -16q-15 -82 -16 -119q-5 -108 57 -122h1q-32 0 -50 4.5t-31 15.5zM610 603v5q0 12 -6 22t-16 16t-22 6q-8 0 -14.5 -2.5t-12 -6.5t-9.5 -9.5t-6.5 -12t-2.5 -13.5v-5
q-82 -6 -140.5 -30t-67.5 -57h505q-6 22 -34.5 40.5t-74 30.5t-99.5 16zM586 604h-11h-9h-20v4q0 5 2.5 9.5t7 7.5t10 3t10 -3t7.5 -7.5t3 -9.5v-4zM341 -5h447v-36h-447v36zM368 17l49 67l49 -67h-98zM466 17l49 67l49 -67h-98zM564 17l49 67l49 -67h-98zM662 17l49 67
l49 -67h-98zM185 -17.5q0 13.5 -59 16.5q-1 25 -5.5 41.5t-10.5 16.5q-14 0 -17 -58q-16 -1 -29.5 -3t-21 -5.5t-7.5 -7.5q0 -14 58 -17q3 -58 16.5 -58t16.5 58q59 3 59 16.5zM989 617q0 14 -58 17q-1 10 -2 19t-2.5 16t-3.5 12t-4.5 8t-4.5 3q-6 0 -10.5 -16.5t-5.5 -41.5
q-26 -2 -42.5 -6.5t-16.5 -10.5q0 -13 59 -16q1 -25 5.5 -41.5t10.5 -16.5t10.5 16.5t6.5 41.5q25 1 41.5 5.5t16.5 10.5z" />
    <glyph glyph-name="uniE674" unicode="&#xe674;" 
d="M759 182q-23 35 -59.5 57t-78.5 26q-55 6 -104.5 -19t-77.5 -72q-47 -4 -81.5 -36t-42.5 -78h4h14h3q10 44 47.5 71t83.5 21q41 -5 70 -34q-7 -4 -13 -9q-25 24 -59 28q-20 3 -39.5 -2.5t-36.5 -17.5q-28 -22 -36 -57h4h14h4q7 24 27 40q13 9 28.5 13.5t31.5 2.5
q26 -3 46 -21q-7 -6 -13 -14q-15 13 -35 16q-21 3 -38.5 -7.5t-25.5 -29.5h4h16h4q14 18 38 16q14 -2 25 -14q-1 0 -1 -1l-1 -1h1h23h1q19 28 49.5 44.5t66.5 17.5q28 0 54 -9q0 -2 1 -3.5t1 -3.5q3 -8 4 -16q-13 6 -27.5 9.5t-29.5 2.5q-17 0 -34 -5.5t-30.5 -14.5
t-24.5 -22h1h28h2q8 6 17.5 10.5t20 7t21.5 3.5q15 0 29 -4t27 -12q-1 -4 -1 -5h22q2 13 1 27t-5 27q-5 12 -12.5 23.5t-18 20t-22.5 14.5q-20 9 -41.5 10t-41 -6.5t-34.5 -22.5q-8 5 -17 9q28 33 71.5 39t81.5 -18q20 -13 33.5 -32t19.5 -42q2 -12 2.5 -24.5t-2.5 -24.5h22
q2 13 2 26q3 0 4 -1q10 -4 18 -10.5t13 -14.5h21q-2 5 -4 9q-6 11 -16.5 19.5t-24.5 14.5q-2 1 -4 1.5t-4.5 1t-4.5 1.5q0 1 -1 2q0 3 -0.5 4.5t-1 3.5t-1.5 3v4q-1 1 -1.5 3t-0.5 3q14 -2 27 -7q24 -10 41.5 -26.5t25.5 -36.5h20q-8 26 -29 47.5t-51 33.5q-21 8 -43 9
q-6 10 -13 20q6 0 12.5 -1t12.5 -2t12.5 -2.5t13 -3.5t12.5 -4q58 -23 86 -72q4 -6 6.5 -12.5t4.5 -12.5h20q-4 18 -14 34q-15 27 -40 47.5t-56 33.5q-2 1 -4.5 1.5t-4.5 1.5t-4.5 1.5t-4.5 1t-5 1.5zM636 152q10 -4 18 -11q-16 3 -32 2q-12 0 -23 -1.5t-21.5 -5t-20.5 -7.5
l-5 5q-3 3 -6 5q18 17 42.5 20.5t47.5 -7.5zM694 188q-9 8 -17 13q-30 20 -65.5 22.5t-67.5 -11.5t-54 -43q-11 4 -20 5h-3h-2q25 37 66.5 55.5t87.5 14.5q65 -7 109 -56q-18 2 -34 0zM852 38h-19h-31h-19h-49h-23h-15h-7h-143h-1h-22h-1h-27h-1h-22h-1h-203
q-9 0 -12.5 -8.5t2.5 -15.5l46 -45q24 -24 58 -24h482q34 0 58 24l46 45q7 7 3.5 15.5t-13.5 8.5h-42h-19h-25zM641 476q0 2 -1 4.5t-2 4t-3 3t-4 2t-5 0.5q-6 0 -10 -4t-4 -10q0 -23 4 -38.5t9.5 -22t14.5 -13.5l6 -4q2 -2 5.5 -7.5t5 -12.5t3 -19t1.5 -29q0 -4 1.5 -7.5
t5 -5.5t7.5 -2q6 0 10 4.5t4 10.5q0 46 -7.5 65t-24.5 31q-4 3 -6.5 5t-5 7.5t-3.5 14.5t-1 23zM567 480q-6 4 -8.5 7.5t-5 14t-2.5 28.5q0 15 -14 15q-6 0 -10.5 -4.5t-4.5 -10.5q0 -17 2 -30t6.5 -21t8.5 -12.5t11 -9.5t10.5 -9.5t7 -20.5t3.5 -43q0 -2 0.5 -3.5t1.5 -3.5
t2 -3t3 -2t3.5 -1.5t3.5 -0.5t4 0.5t3 1.5l4 2q1 1 2 3t1.5 3.5t0.5 3.5q0 46 -8 65t-25 31zM502 476q0 6 -4 10t-10 4q-3 0 -6 -1t-4.5 -3t-3 -4.5t-1.5 -5.5q0 -34 7 -48.5t21 -25.5q3 -1 5 -2l3 -4q2 -2 3.5 -4.5t3 -6.5t2.5 -9t2 -11.5t1.5 -15.5t0.5 -19q0 -3 1 -5.5
t3 -4.5t4.5 -3.5t5.5 -1.5q4 0 7.5 2t5.5 5.5t2 7.5q0 46 -8 65t-25 31q-3 2 -5 3.5t-4.5 5.5t-3.5 8.5t-2 13t-1 19.5zM202 196q21 10 32 35q7 16 8 28q2 2 2 5v120q0 3 -1.5 5.5t-3 4.5t-4 3t-5.5 1t-5.5 -1t-4 -3t-3 -4.5t-1.5 -5.5v-92h-5l-6 2h-7v90q0 6 -4 10t-9.5 4
t-9.5 -4t-4 -10v-90q-5 0 -9.5 -1t-8.5 -1v92q0 6 -4 10t-9 4q-4 0 -7 -2t-5 -5t-2 -7v-120q0 -3 1 -5q1 -3 1.5 -6t1.5 -6.5t2.5 -7.5t3.5 -8q12 -28 35 -37q5 -137 -23 -186q-2 -3 1 -17t8 -25q30 -52 59 -3q6 10 9 23.5t0 17.5q-28 53 -23 192zM170 480.5q0 5.5 -16 10
t-41 6.5q-3 56 -16 56q-5 0 -9.5 -16t-6.5 -40q-24 -2 -40 -6.5t-16 -9.5q0 -13 56 -16q3 -57 16 -57t16 57q25 1 41 5.5t16 10zM993 660q-7 6 -33 -22q-31 23 -37 16q-2 -3 4 -12t18 -21q-23 -30 -16 -36t33 22q31 -23 36.5 -16.5t-22.5 33.5q24 30 17 36z" />
    <glyph glyph-name="uniE675" unicode="&#xe675;" 
d="M819 196h-637q-12 0 -16 -7t3 -17l14 -22q4 -6 11 -6h613q7 0 11 6l14 22q7 10 3 17t-16 7zM522 500q-7 0 -7 5t6 8q22 13 22 38q0 5 -1 10t-3 9t-5 7.5t-6.5 6.5t-8 5.5t-9.5 3.5t-10 1q-17 0 -30 -12.5t-13 -30.5q0 -25 23 -38q1 -1 2.5 -2t2.5 -2.5t1 -3.5q0 -5 -7 -5
q-69 -6 -126.5 -44.5t-91 -101.5t-33.5 -136h545q0 55 -20 105t-53 87.5t-79.5 61.5t-98.5 28zM355 360q-10 -30 -14.5 -59t-4.5 -44v-14h-82q7 72 48.5 129.5t104.5 84.5l-1 -2q-2 -2 -5.5 -6t-7.5 -9.5t-9 -13.5t-9.5 -17.5t-10 -22t-9.5 -26.5zM699 331q-4 11 -10 24
t-12 24.5t-12 21t-9 15.5l-4 5q40 -32 64.5 -78.5t29.5 -99.5h-36q0 50 -11 88zM643 103l-18 -12q-12 -8 -19 -13t-17.5 -11.5t-18 -10t-17 -6t-17.5 -2.5h-101l-2 15q11 2 25 5t24 4.5t20.5 4t18 5t13 5.5t7.5 7t1 9t-4 9t-9 6t-12 3t-17 1h-20h-26h-28q-48 0 -69.5 -6.5
t-64.5 -30.5v-143q21 19 164 19q63 0 94.5 7.5t65.5 33.5q2 2 7 6q99 78 91 92q-4 6 -10 10.5t-15 6.5t-21 -1.5t-25 -12.5zM182 76q-4 -1 -7 -3.5t-5 -6.5t-2 -8v-163q0 -3 2 -6t5 -4t7 0l87 24v187zM944 632q1 3 1.5 6t0.5 6q0 4 -1 9l23 21q3 3 4.5 5.5t2 6t-0.5 7
t-2.5 6.5t-3.5 6q-7 7 -16 7.5t-15 -5.5l-23 -21q-2 0 -4 0.5t-4 0.5h-4q-4 0 -9 -1l-21 24q-6 6 -15 5.5t-16 -6.5t-7.5 -15t5.5 -15l21 -24l-1 -11q0 -5 1 -9l-24 -22q-6 -6 -6 -15t6.5 -15.5t15.5 -7.5t15 5l24 22q2 -1 5 -1.5t6 -0.5q5 0 9 1l22 -23q14 -12 30 0
q7 7 8 16t-5 15zM902.5 626q-7.5 0 -13 5t-5.5 13q0 5 2.5 9t7 6.5t8.5 2.5q8 0 13 -5.5t5 -13t-5 -12.5t-12.5 -5zM218 548h-23q-4 7 -11 11v23q-1 12 -14 14q-6 0 -10 -4t-4 -10v-23q-2 -2 -4 -3.5t-3.5 -3.5t-3.5 -4h-23q-3 0 -5.5 -1t-4.5 -3t-3 -4.5t-1 -5.5q0 -4 2 -7
t5 -5t7 -2h23q2 -2 3.5 -4t3.5 -3.5t4 -3.5v-23q0 -3 1 -5.5t3 -4.5t4.5 -3t5.5 -1q4 0 7 2t5 5t2 7v23q7 4 11 11h23q6 0 10 4t4 10t-4 10t-10 4z" />
    <glyph glyph-name="uniE676" unicode="&#xe676;" 
d="M374 271q22 0 37 15t15 36q0 7 -2 14t-6 13t-9 11t-11.5 8t-13.5 4q1 24 -17 40l-10 -12q12 -10 11 -27q-12 -2 -22.5 -9t-16.5 -18t-6 -24q0 -11 4 -20.5t11 -16t16.5 -10.5t19.5 -4zM351.5 352q4.5 3 9.5 4.5t9 0.5t7 -5q2 -3 1.5 -7t-3 -8.5t-6.5 -7.5
q-7 -5 -14.5 -5.5t-11.5 4.5q-2 4 -1.5 8t3 8.5t7 7.5zM873 191l-1 2l3 139l-427 -2v-8q0 -20 -10 -37t-27 -27t-37 -10t-37 10t-26.5 27t-9.5 37v4v5h-114v-3q8 -20 30 -40t51.5 -36.5t63 -29t68.5 -20t65 -8.5l385 101v-48l-390 -109v41q-48 2 -102 18t-101 43.5t-70 58.5
v-272q0 -4 6 -12.5t28.5 -24t57.5 -30.5t74.5 -26t61.5 -15l22 -4l435 131v75h1l-1 2v68h1zM850 63l-390 -118v61l390 109v-52zM850 177l-390 -109v8l390 108v-7zM225 572h-16q-1 2 -2 3.5t-2.5 2.5t-2.5 2v16q0 4 -3 6.5t-7 2.5q-10 0 -10 -9v-16q-2 -2 -4 -3.5t-3 -4.5
h-16q-10 0 -10 -9.5t10 -9.5h16q2 -5 7 -7v-17q0 -4 3 -6.5t7 -2.5q10 0 10 9v17q1 1 2.5 2t2.5 2t2 3h16q10 0 10 9.5t-10 9.5zM821 679l-13 -20q-3 0 -7 -1t-7 -3l-20 13q-12 7 -19 -5q-2 -3 -2 -5.5t0.5 -5.5t2 -5t3.5 -4l20 -12q0 -7 4 -14l-12 -20q-7 -12 5 -19
q3 -2 6.5 -2.5t7 1.5t5.5 5l12 20q4 0 7.5 1t6.5 3l21 -13q11 -7 19 5q3 5 1.5 11t-6.5 8l-20 13q0 4 -1 7.5t-2 6.5l12 20q7 12 -5 19.5t-19 -4.5z" />
    <glyph glyph-name="uniE677" unicode="&#xe677;" 
d="M941 532q-2 2 -4.5 5t-12.5 12t-22 17.5t-32.5 20.5t-44 22.5t-57 21t-70.5 17.5t-85 12t-101 5q-92 0 -170 -14.5t-122.5 -32t-79.5 -40.5t-44 -32t-13 -14q-4 -6 -7 -15t-3 -16v-161q0 -7 4.5 -10.5t11.5 -1.5l187 48q7 3 11.5 9.5t4.5 14.5v68q0 18 13 31q1 1 5 4
t20.5 11t37.5 14t59.5 10.5t84.5 4.5t84 -4.5t60 -11t37.5 -13t20.5 -11.5l6 -4q12 -13 12 -31v-58q0 -8 5 -14.5t11 -9.5l187 -57q4 -1 8 -0.5t6 4t2 7.5v161q0 17 -10 31zM867 183l-153 144q-6 5 -14.5 10t-18.5 9l-23 103q-3 15 -16 25t-28 10h-204q-10 0 -19 -4.5
t-16 -12.5t-9 -18l-23 -103q-4 -1 -8 -2.5t-7 -3.5l-8 -4q-3 -2 -6 -4.5t-6 -4.5l-152 -144q-6 -5 -11 -12.5t-9 -15.5t-6.5 -17t-2.5 -16l-8 -131q0 -9 4 -17.5t12.5 -13.5t17.5 -5h716q15 0 25 10.5t10 25.5l-8 131q-1 10 -5 21.5t-10.5 22t-13.5 17.5zM511 17
q-73 0 -124.5 52t-51.5 125t51.5 124.5t125 51.5t125 -51.5t51.5 -124.5q0 -84 -65 -137q-49 -40 -112 -40zM628 194q0 48 -34 82t-83 34q-23 0 -44.5 -9t-37 -25t-25 -37.5t-9.5 -44.5q0 -49 34 -83t82 -34q32 0 59 15.5t42.5 42.5t15.5 59z" />
    <glyph glyph-name="uniE678" unicode="&#xe678;" 
d="M825 45q0 50 -35.5 86t-86.5 36q-54 0 -90 -40l-197 120q2 6 3.5 13t2.5 13.5t1 13.5q0 9 -1.5 17.5t-3.5 16.5l206 119q16 -17 38.5 -27t46.5 -10q33 0 60 16t43 43.5t16 59.5q0 49 -35 83.5t-83.5 34.5t-83.5 -34.5t-35 -83.5q0 -8 1 -15t3 -14l-207 -120
q-17 17 -39.5 27t-47.5 10t-47.5 -10t-39 -26t-26 -39t-9.5 -48q0 -33 16 -61t44.5 -44.5t61.5 -16.5q47 0 82 32l201 -123q-1 -7 -2 -14.5t-1 -14.5q0 -33 16.5 -61.5t44.5 -44.5t61 -16t61.5 16t44.5 44.5t16 61.5zM709 580q16 0 29.5 -8t21.5 -21t8 -29q0 -10 -3 -19
t-8.5 -16t-12.5 -12.5t-16 -8.5t-19 -3q-24 0 -41 17t-17 41.5t17 41.5t41 17zM238 287.5q0 25.5 18.5 44t44.5 18.5q10 0 19.5 -3t17 -9t13.5 -13.5t9 -17t3 -20.5q0 -25 -18 -43.5t-44 -18.5t-44.5 18.5t-18.5 44zM641 45q0 26 18 44t44 18q6 0 11.5 -1t10.5 -3t9.5 -4.5
t8.5 -6t7.5 -7.5t6.5 -8.5t5 -10t3 -11t1 -10.5q0 -13 -5 -24.5t-13.5 -20t-20 -13.5t-24.5 -5q-26 0 -44 18.5t-18 44.5z" />
    <glyph glyph-name="uniE679" unicode="&#xe679;" 
d="M746 539v38q0 18 -7.5 31.5t-22 20.5t-33.5 7q-30 0 -46.5 -15.5t-16.5 -43.5v-38h-43v38q0 28 -16.5 43.5t-46.5 15.5q-14 0 -26 -4t-20 -11.5t-12 -18.5t-4 -25v-38h-43v38q0 28 -16.5 43.5t-46 15.5t-46.5 -15.5t-17 -43.5v-38h-72v-606h606v606h-71zM654 577
q0 7 1.5 11.5t5 8t9 5t13.5 1.5q5 0 9 -1t7.5 -2t5.5 -3t4 -5t2.5 -7t0.5 -8v-101q0 -14 -7 -20t-22 -6q-11 0 -17 2.5t-9 8t-3 15.5v101zM485 577q0 14 7 20t22.5 6t22.5 -6t7 -20v-101q0 -14 -7 -20t-23 -6q-10 0 -16.5 2.5t-9.5 8t-3 15.5v101zM317 577q0 14 7 20t22 6
q5 0 9.5 -1t7.5 -2t5.5 -3t4 -5t2 -7t0.5 -8v-101q0 -10 -3 -15.5t-9 -8t-16.5 -2.5t-17 2.5t-9.5 8t-3 15.5v101zM767 -16h-505v420h505v-420zM426 72q11 -11 26 -11h18q15 0 25 11l204 203q10 11 0 22l-38 37q-11 11 -21 0l-168 -168q-2 -2 -4 -3t-4.5 -1.5t-4.5 0t-4 1.5
t-4 3l-61 61q-5 4 -11 4t-11 -4l-37 -38q-5 -4 -5 -10.5t5 -10.5z" />
    <glyph glyph-name="uniE67A" unicode="&#xe67a;" 
d="M652 335q-9 0 -27 1h7q3 0 6 -0.5t6 -0.5h8zM680 104l-10 7l10 7h5q61 4 118 8q51 35 25 80h-8h-2h-1q-3 0 -14 0.5t-25 1t-31 1t-30 1.5t-23.5 1.5t-11.5 0.5h-6l-10 7l10 7l5 1l15 1q16 1 33.5 2.5t37.5 2.5t34 2t17 1l21 1q46 41 9 76q-8 7 -23.5 12t-40.5 6.5
t-43 2.5t-51.5 0.5t-44.5 0.5h-3h1h10h-1h-8q-3 0 -6 0.5t-6 0.5h-7q-12 1 -29.5 1.5t-31.5 0.5h-26h-12h-2l-11 5l11 2h1h3q3 0 6 0.5t9.5 1t14.5 1.5q-9 20 -10 39t5 34.5t13.5 28t15.5 26t10 22.5q10 37 10 65t-7 42t-15.5 23t-14.5 11l-7 2q-20 -26 -49.5 -67.5
t-82 -126t-59.5 -118.5q-12 -51 -108 -47q-55 2 -83 -71q-30 -76 -9 -156q22 -80 81 -93q10 -2 29 3t36 7t48 -9q43 -19 92 -27t79.5 -8t84.5 3.5t73 3.5q23 1 37.5 9t18 20.5t3.5 22.5t-3 22q-9 0 -19 0.5t-18 1t-15 0.5h-10h-5h-6l-10 7l10 8h5q1 0 5.5 0.5t10.5 0.5
t14.5 0.5t17.5 1.5t19 1.5t19 1.5q16 11 21 24.5t3 22t-7 20.5q-5 0 -95 4z" />
    <glyph glyph-name="uniE67B" unicode="&#xe67b;" 
d="M523 637q-44 0 -87 -9t-81.5 -25t-73.5 -39.5t-64.5 -52.5t-53.5 -64t-40.5 -73.5t-25.5 -81t-9 -87.5v-113h87v114q1 94 48 173t126.5 125t173.5 46t173.5 -46t126.5 -125t48 -173v-3v-8v-12v-15v-16v-17v-17v-14v-12h87v114q-1 117 -59.5 216.5t-158.5 157t-217 57.5z
M326 255h-55q-8 0 -14.5 -2.5t-11 -7.5t-7.5 -11.5t-3 -13.5v-255q0 -14 10.5 -24.5t25.5 -10.5h55q3 0 6 0.5t6 1.5t6 2.5t5 3.5t4 4.5t3.5 5t2.5 5.5l2 6q1 3 1 6v255q0 14 -10.5 24.5t-25.5 10.5zM776 255h-56q-7 0 -13.5 -2.5t-11.5 -7.5t-7.5 -11.5t-2.5 -13.5v-255
q0 -14 10.5 -24.5t24.5 -10.5h56q14 0 24.5 10.5t10.5 24.5v255q0 5 -1 9.5t-3.5 8.5t-5.5 7t-7 5.5t-9 3.5t-9 1z" />
    <glyph glyph-name="uniE67C" unicode="&#xe67c;" 
d="M745 277v129q0 17 -14.5 24t-29.5 0t-15 -24v-129q0 -65 -46 -111t-111 -46h-3h-1h-1h-1h-2q-65 0 -111 46t-46 111v129q0 10 -6 17t-14.5 9t-17.5 0.5t-15 -9t-6 -17.5v-129q0 -81 53.5 -142t132.5 -72v-93l-132 -37h333l-133 38v92q79 11 132.5 72t53.5 142zM523 174h1
h1h1h1q21 0 40.5 8.5t34 22.5t22.5 33.5t8 40.5v254q0 44 -30.5 74.5t-74.5 30.5h-1h-2h-1q-43 0 -74 -30.5t-31 -74.5v-254q0 -43 31 -74t74 -31z" />
    <glyph glyph-name="uniE67D" unicode="&#xe67d;" 
d="M48 -13v522q0 24 17.5 41.5t41.5 17.5h817q6 0 12.5 -1.5t12.5 -4.5t11 -7t9 -9t7 -11t4.5 -12.5t1.5 -13.5v-522q0 -16 -8 -29.5t-21.5 -21t-28.5 -7.5h-817q-24 0 -41.5 17t-17.5 41zM931 509q0 8 -7 8h-817q-8 0 -8 -8v-522q0 -7 8 -7h817q7 0 7 7v522zM510 148
q-10 0 -17 7l-345 274q-9 7 -10 18.5t6 21t18.5 10.5t20.5 -6l327 -261l335 260q10 7 21.5 5.5t18.5 -10.5q3 -4 4.5 -9.5t1 -11t-3.5 -10.5t-7 -8l-353 -274q-7 -6 -17 -6z" />
    <glyph glyph-name="uniE67E" unicode="&#xe67e;" 
d="M725 129v423q0 27 -17.5 50.5t-51.5 23.5h-391q-31 2 -57 -21q-44 -39 -44 -136v-20h79v-396q0 -36 19 -54q12 -11 27 -13h417q28 0 48.5 13t31 33t15.5 39.5t5 38.5v20zM204 489q2 22 6.5 40t9.5 27.5t12 15.5q11 -9 11 -40v-43h-39zM324 109q0 -29 -5.5 -49
t-11.5 -26.5t-13 -7.5q-11 2 -11 27v479q0 33 -12 54h385q28 0 29 -34v-423l-361 -1v-19zM706 26h-357q3 7 6 16t5 21t3 26l401 1q-2 -16 -7 -28.5t-18.5 -24t-32.5 -11.5zM357 503h263v-40h-263v40zM357 415h263v-40h-263v40zM357 326h263v-40h-263v40zM357 238h263v-40
h-263v40z" />
    </font>
</defs>
</svg>
